<svg height="512.00003pt" viewBox="0 0 512.00003 512.00003" width="512.00003pt" xmlns="http://www.w3.org/2000/svg"><path d="m59.734375 85.332031c14.136719 0 25.597656-11.460937 25.597656-25.597656 0-14.140625-11.460937-25.601563-25.597656-25.601563-14.140625 0-25.601563 11.460938-25.601563 25.601563 0 14.136719 11.460938 25.597656 25.601563 25.597656zm0-34.132812c4.710937 0 8.53125 3.820312 8.53125 8.535156 0 4.710937-3.820313 8.53125-8.53125 8.53125-4.714844 0-8.535156-3.820313-8.535156-8.53125 0-4.714844 3.820312-8.535156 8.535156-8.535156zm0 0"/><path d="m128 85.332031c14.136719 0 25.601562-11.460937 25.601562-25.597656 0-14.140625-11.464843-25.601563-25.601562-25.601563s-25.601562 11.460938-25.601562 25.601563c0 14.136719 11.464843 25.597656 25.601562 25.597656zm0-34.132812c4.710938 0 8.535156 3.820312 8.535156 8.535156 0 4.710937-3.824218 8.53125-8.535156 8.53125s-8.535156-3.820313-8.535156-8.53125c0-4.714844 3.824218-8.535156 8.535156-8.535156zm0 0"/><path d="m196.265625 85.332031c14.140625 0 25.601563-11.460937 25.601563-25.597656 0-14.140625-11.460938-25.601563-25.601563-25.601563-14.136719 0-25.597656 11.460938-25.597656 25.601563 0 14.136719 11.460937 25.597656 25.597656 25.597656zm0-34.132812c4.714844 0 8.535156 3.820312 8.535156 8.535156 0 4.710937-3.820312 8.53125-8.535156 8.53125-4.710937 0-8.53125-3.820313-8.53125-8.53125 0-4.714844 3.820313-8.535156 8.53125-8.535156zm0 0"/><path d="m375.464844 85.332031h17.070312c9.425782 0 17.066406-7.640625 17.066406-17.066406v-17.066406c0-9.425781-7.640624-17.066407-17.066406-17.066407h-17.070312c-9.425782 0-17.066406 7.640626-17.066406 17.066407v17.066406c0 9.425781 7.640624 17.066406 17.066406 17.066406zm0-34.132812h17.070312v17.066406h-17.070312zm0 0"/><path d="m131.789062 315.734375h26.554688c-3.070312 5.164063-4.707031 11.054687-4.742188 17.066406 0 18.851563 15.28125 34.132813 34.132813 34.132813s34.132813-15.28125 34.132813-34.132813c-.035157-6.011719-1.671876-11.902343-4.746094-17.066406h4.746094c4.710937 0 8.53125-3.820313 8.53125-8.535156 0-4.710938-3.820313-8.53125-8.53125-8.53125h-136.535157c-2.339843-.042969-4.570312-1.027344-6.175781-2.734375-1.605469-1.707032-2.457031-3.988282-2.355469-6.328125l-.519531-8.003907h128.519531c3.769531 0 7.09375-2.476562 8.175781-6.085937l25.597657-85.332031c.773437-2.585938.28125-5.382813-1.328125-7.546875-1.609375-2.160157-4.148438-3.4375-6.847656-3.4375h-160.519532l-1.613281-26.128907c-.277344-4.503906-4.019531-8.011718-8.53125-8.003906h-17.066406c-4.714844 0-8.535157 3.820313-8.535157 8.535156 0 4.710938 3.820313 8.53125 8.535157 8.53125h9.050781l8.015625 128c.035156 9.914063 5.789063 18.914063 14.769531 23.109376-9.914062 13.878906-8.085937 32.941406 4.285156 44.683593 12.375 11.742188 31.503907 12.574219 44.847657 1.953125 13.347656-10.625 16.824219-29.457031 8.152343-44.144531zm73.011719 17.066406c0 9.425781-7.640625 17.066407-17.066406 17.066407s-17.066406-7.640626-17.066406-17.066407 7.640625-17.066406 17.066406-17.066406 17.066406 7.640625 17.066406 17.066406zm14.128907-136.535156-5.117188 17.066406h-94.347656c-4.710938 0-8.53125 3.820313-8.53125 8.535157 0 4.710937 3.820312 8.53125 8.53125 8.53125h89.226562l-10.238281 34.136718h-123.242187l-4.265626-68.269531zm-116.53125 153.601563c-9.425782 0-17.066407-7.640626-17.066407-17.066407s7.640625-17.066406 17.066407-17.066406c9.425781 0 17.066406 7.640625 17.066406 17.066406s-7.640625 17.066407-17.066406 17.066407zm0 0"/><path d="m486.398438 136.535156h-34.132813v-91.90625c-.027344-24.636718-19.992187-44.6015622-44.628906-44.628906h-363.007813c-24.636718.0273438-44.6015622 19.992188-44.628906 44.628906v405.675782c.0273438 24.636718 19.992188 44.601562 44.628906 44.628906h212.941406c3.601563 10.191406 13.21875 17.023437 24.03125 17.066406h204.796876c14.140624 0 25.601562-11.460938 25.601562-25.601562v-324.265626c0-14.136718-11.460938-25.597656-25.601562-25.597656zm-230.398438 307.199219h-93.867188c-9.425781 0-17.066406-7.640625-17.066406-17.066406s7.640625-17.066407 17.066406-17.066407h93.867188zm17.066406-247.46875h221.867188v256h-221.867188zm221.867188-34.132813v17.066407h-221.867188v-17.066407c0-4.710937 3.820313-8.53125 8.535156-8.53125h204.796876c4.714843 0 8.535156 3.820313 8.535156 8.53125zm-450.304688-145.066406h363.007813c15.214843.019532 27.542969 12.347656 27.5625 27.5625v57.769532h-418.132813v-57.769532c.019532-15.214844 12.347656-27.542968 27.5625-27.5625zm-27.5625 433.238282v-330.839844h418.132813v17.070312h-153.597657c-14.140624 0-25.601562 11.460938-25.601562 25.597656v230.402344h-93.867188c-18.851562 0-34.132812 15.28125-34.132812 34.132813 0 18.851562 15.28125 34.132812 34.132812 34.132812h93.867188v17.066407h-211.371094c-15.214844-.019532-27.542968-12.347657-27.5625-27.5625zm469.332032 44.628906h-204.796876c-4.714843 0-8.535156-3.820313-8.535156-8.535156v-17.066407h221.867188v17.066407c0 4.714843-3.820313 8.535156-8.535156 8.535156zm0 0"/><path d="m452.265625 298.667969h-136.53125c-14.140625 0-25.601563 11.460937-25.601563 25.597656v76.800781c0 14.140625 11.460938 25.601563 25.601563 25.601563h136.53125c14.140625 0 25.601563-11.460938 25.601563-25.601563v-76.800781c0-14.136719-11.460938-25.597656-25.601563-25.597656zm-136.53125 17.066406h136.53125c4.714844 0 8.535156 3.820313 8.535156 8.53125v17.066406h-153.601562v-17.066406c0-4.710937 3.820312-8.53125 8.535156-8.53125zm136.53125 93.867187h-136.53125c-4.714844 0-8.535156-3.820312-8.535156-8.535156v-42.667968h153.601562v42.667968c0 4.714844-3.820312 8.535156-8.535156 8.535156zm0 0"/><path d="m324.265625 281.601562h119.46875c4.710937 0 8.53125-3.820312 8.53125-8.535156 0-4.710937-3.820313-8.53125-8.53125-8.53125h-119.46875c-4.710937 0-8.53125 3.820313-8.53125 8.53125 0 4.714844 3.820313 8.535156 8.53125 8.535156zm0 0"/><path d="m341.332031 247.464844h85.335938c4.710937 0 8.53125-3.820313 8.53125-8.53125 0-4.714844-3.820313-8.535156-8.53125-8.535156h-85.335938c-4.710937 0-8.53125 3.820312-8.53125 8.535156 0 4.710937 3.820313 8.53125 8.53125 8.53125zm0 0"/><path d="m341.332031 375.464844h-8.53125c-4.714843 0-8.535156 3.824218-8.535156 8.535156s3.820313 8.535156 8.535156 8.535156h8.53125c4.714844 0 8.535157-3.824218 8.535157-8.535156s-3.820313-8.535156-8.535157-8.535156zm0 0"/><path d="m384 375.464844h-8.535156c-4.710938 0-8.53125 3.824218-8.53125 8.535156s3.820312 8.535156 8.53125 8.535156h8.535156c4.710938 0 8.535156-3.824218 8.535156-8.535156s-3.824218-8.535156-8.535156-8.535156zm0 0"/></svg>