<?xml version="1.0"?>
<svg xmlns="http://www.w3.org/2000/svg" id="Layer_1" data-name="Layer 1" viewBox="0 0 64 64"><path d="M7.139,12.975H8.21a1,1,0,0,0,0-2H7.139a1,1,0,0,0,0,2Z"/><path d="M13.153,12.975h1.072a1,1,0,0,0,0-2H13.153a1,1,0,0,0,0,2Z"/><path d="M19.167,12.975h1.072a1,1,0,0,0,0-2H19.167a1,1,0,0,0,0,2Z"/><path d="M25.182,12.975h1.071a1,1,0,0,0,0-2H25.182a1,1,0,0,0,0,2Z"/><path d="M42.022,32.059A12.255,12.255,0,1,0,29.767,44.314,12.268,12.268,0,0,0,42.022,32.059ZM35,34.917A27.484,27.484,0,0,0,35,29.2c3.162.689,5.02,1.918,5.02,2.858S38.164,34.229,35,34.917Zm-5.235,7.4c-.94,0-2.169-1.858-2.858-5.02.945.1,1.905.149,2.858.149s1.913-.054,2.858-.149C31.937,40.456,30.707,42.314,29.767,42.314Zm0-6.871a26.879,26.879,0,0,1-3.2-.186,27.585,27.585,0,0,1,0-6.4,27.585,27.585,0,0,1,6.4,0,27.585,27.585,0,0,1,0,6.4A26.879,26.879,0,0,1,29.767,35.443ZM19.512,32.059c0-.94,1.858-2.169,5.021-2.858a27.3,27.3,0,0,0,0,5.716C21.37,34.229,19.512,33,19.512,32.059ZM29.767,21.8c.94,0,2.17,1.858,2.858,5.021a27.3,27.3,0,0,0-5.716,0C27.6,23.662,28.827,21.8,29.767,21.8Zm9.669,6.868a16.173,16.173,0,0,0-4.73-1.552,16.127,16.127,0,0,0-1.552-4.729A10.291,10.291,0,0,1,39.436,28.672ZM26.38,22.391a16.156,16.156,0,0,0-1.552,4.729A16.156,16.156,0,0,0,20.1,28.672,10.287,10.287,0,0,1,26.38,22.391ZM20.1,35.446A16.127,16.127,0,0,0,24.828,37a16.173,16.173,0,0,0,1.552,4.73A10.291,10.291,0,0,1,20.1,35.446Zm13.055,6.282A16.114,16.114,0,0,0,34.706,37a16.144,16.144,0,0,0,4.73-1.552A10.3,10.3,0,0,1,33.154,41.728Z"/><path d="M61,45.371H57.534V10.2a3.519,3.519,0,0,0-3.52-3.511H5.52A3.515,3.515,0,0,0,2.009,10.2v6.2c0,.016-.009.029-.009.046s.008.03.009.046v28.93A3.515,3.515,0,0,0,5.52,48.936H32.31v.307H24.08a1,1,0,0,0-1,1v6.064a1,1,0,0,0,1,1H61a1,1,0,0,0,1-1V46.371A1,1,0,0,0,61,45.371ZM5.52,8.693H54.014a1.517,1.517,0,0,1,1.52,1.511v5.245H4.009V10.2A1.513,1.513,0,0,1,5.52,8.693Zm0,38.243a1.513,1.513,0,0,1-1.511-1.511V17.449H55.534V45.371H52.77v-5.3a1,1,0,0,0-1-1H42.54a1,1,0,0,0-1,1v5.057H33.31a1,1,0,0,0-1,1v.8Zm19.56,4.307h7.23v4.064H25.08Zm9.23-1V47.132h7.23v8.175H34.31Zm9.23-4.111V41.075h7.23V55.307H43.54ZM60,55.307H52.77V47.371H60Z"/></svg>
