<svg id="Layer_5" enable-background="new 0 0 64 64" height="512" viewBox="0 0 64 64" width="512" xmlns="http://www.w3.org/2000/svg"><g><path d="m60 21h-5v-.701l-1.69-.613c-.069-.213-.148-.422-.227-.631.114-.007.226-.024.341-.018 2.561.152 5.081-.802 6.896-2.617 2.296-2.296 3.209-5.649 2.384-8.751l-.447-1.677-5.121 5.121-3.718-.531-.531-3.718 5.12-5.12-1.676-.447c-3.099-.826-6.453.086-8.752 2.383-1.814 1.814-2.768 4.329-2.616 6.897.007.115-.01.227-.017.341-.21-.079-.419-.159-.632-.228l-.613-1.69h-7.402l-.612 1.69c-.711.229-1.397.512-2.052.846l-1.624-.76-5.234 5.234.76 1.624c-.333.653-.616 1.34-.846 2.052l-1.691.613v.701h-21c-1.654 0-3 1.346-3 3v36c0 1.654 1.346 3 3 3h56c1.654 0 3-1.346 3-3v-36c0-1.654-1.346-3-3-3zm-5 6.701v-4.701h5c.552 0 1 .449 1 1v5h-7.942c.086-.227.176-.453.251-.686zm-6.007-22.607c1.331-1.331 3.114-2.068 4.932-2.096l-3.159 3.159.885 6.193 6.192.885 3.159-3.159c-.028 1.818-.766 3.601-2.096 4.931-1.41 1.411-3.369 2.148-5.364 2.035-1.397-.09-2.781.446-3.786 1.453l-12.874 12.872c-1.908-.811-3.439-2.341-4.25-4.25l12.874-12.873c1.006-1.006 1.535-2.386 1.452-3.786-.116-1.998.625-3.953 2.035-5.364zm-.993 18.906c0 4.411-3.589 8-8 8-.295 0-.586-.019-.872-.05l8.804-8.804c.03.284.068.566.068.854zm-16 0c0-4.411 3.589-8 8-8 .288 0 .57.039.854.069l-8.804 8.804c-.031-.287-.05-.578-.05-.873zm-5-2.299 1.324-.48.14-.493c.259-.912.616-1.778 1.063-2.576l.251-.448-.595-1.271 3.25-3.251 1.272.595.447-.25c.801-.448 1.667-.805 2.575-1.062l.494-.14.48-1.325h4.598l.479 1.325.494.14c.299.084.592.184.882.29-.022.024-.038.052-.061.076l-1.512 1.512c-.839-.225-1.704-.343-2.581-.343-5.514 0-10 4.486-10 10s4.486 10 10 10 10-4.486 10-10c0-.877-.119-1.742-.342-2.58l1.512-1.512c.023-.023.052-.039.076-.061.106.29.206.583.291.882l.14.493 1.323.479v4.598l-1.324.48-.14.493c-.259.912-.616 1.778-1.063 2.576l-.251.448.595 1.271-3.25 3.251-1.272-.595-.447.25c-.799.447-1.666.805-2.576 1.062l-.493.14-.48 1.325h-4.598l-.479-1.325-.493-.14c-.91-.257-1.777-.615-2.576-1.062l-.447-.25-1.272.595-3.25-3.251.595-1.271-.251-.448c-.446-.797-.804-1.664-1.063-2.576l-.14-.493-1.325-.48zm-23 1.299h21v4.701l1.69.613c.075.233.165.459.251.686h-23.941v-5c0-.551.448-1 1-1zm56 38h-56c-.552 0-1-.449-1-1v-29h24.24l-.463.99 5.234 5.234 1.624-.76c.653.333 1.34.616 2.052.846l.612 1.69h7.402l.612-1.69c.712-.229 1.398-.512 2.052-.846l1.624.76 5.234-5.234-.463-.99h8.24v29c0 .551-.448 1-1 1z"/><path d="m13 25h2v2h-2z"/><path d="m5 25h2v2h-2z"/><path d="m9 25h2v2h-2z"/><path d="m25 50.375v-9.375c0-4.411-3.589-8-8-8s-8 3.589-8 8v9.375c-2.318.473-4 2.531-4 4.898v3.727h24v-3.727c0-2.367-1.682-4.425-4-4.898zm-13-5.375c-.552 0-1-.449-1-1s.448-1 1-1zm0 2h.424c.297.677.749 1.263 1.297 1.744-.252.436-.649.768-1.095.897l-1.626.329v-3.154c.314.112.648.184 1 .184zm8-2c0 1.654-1.346 3-3 3s-3-1.346-3-3v-2h6zm-4.539 4.732c.488.16.999.268 1.539.268.541 0 1.052-.108 1.541-.268.096.165.204.321.322.47l-1.863 2.236-1.861-2.233c.118-.15.226-.307.322-.473zm4.819-.989c.548-.481.999-1.067 1.296-1.743h.424c.352 0 .686-.072 1-.184v3.156l-1.55-.312c-.501-.143-.913-.479-1.17-.917zm1.72-5.743c.552 0 1 .449 1 1s-.448 1-1 1zm-5-8c3.309 0 6 2.691 6 6v.184c-.314-.112-.648-.184-1-.184h-1-7.723-1.277c-.352 0-.686.072-1 .184v-.184c0-3.309 2.691-6 6-6zm10 22h-20v-1.727c0-1.422 1.012-2.659 2.406-2.941l3.692-.749c.155-.044.304-.101.45-.162l3.452 4.141 3.455-4.146c.168.072.342.134.523.185l3.616.73c1.394.283 2.406 1.52 2.406 2.942z"/><path d="m35 51h24v-10h-24zm2-8h20v6h-20z"/><path d="m35 53h24v2h-24z"/><path d="m35 57h20v2h-20z"/><path d="m57 57h2v2h-2z"/></g></svg>