<svg xmlns="http://www.w3.org/2000/svg" version="1.1" xmlns:xlink="http://www.w3.org/1999/xlink" width="512" height="512" x="0" y="0" viewBox="0 0 512 512" style="enable-background:new 0 0 512 512" xml:space="preserve"><g><path d="M215.683 444.379h-.776l-.881-3.512c-4.375-17.434-8.9-35.461-13.085-53.229-6.456-27.415-13.073-44.91-49.832-55.338l-35.535-25.524c-5.896-4.234-13.104-5.928-20.304-4.777l-23.667-55.864c-16.026-37.829-36.852-33.409-42.852-31.153-14.776 5.554-23.45 25.131-18.197 41.073l30.166 91.561c.317.964.639 1.951.967 2.958 4.926 15.122 11.058 33.941 25.168 43.639l41.132 28.269c4.589 3.154 7.326 7.146 8.614 12.562l2.219 9.33h-4.639c-4.516 0-8.75 1.748-11.921 4.922-3.172 3.175-4.917 7.412-4.913 11.93l.024 24.95c.009 9.273 7.561 16.818 16.834 16.818l101.5.006c4.517 0 8.751-1.748 11.923-4.923s4.917-7.411 4.912-11.929l-.024-24.95c-.009-9.274-7.56-16.819-16.833-16.819zm-85.46-12.576c-2.081-8.748-6.894-15.767-14.305-20.859l-41.132-28.269c-10.2-7.01-15.516-23.327-19.787-36.438-.333-1.021-.659-2.023-.981-3.002l-30.166-91.561c-3.141-9.534 2.777-20.938 9.826-23.587 8.145-3.062 17.503 5.729 25.036 23.509l23.745 56.048a27.382 27.382 0 0 0-5.116 5.4c-4.256 5.925-5.947 13.174-4.76 20.411s5.103 13.566 11.028 17.822l48.562 34.883a7 7 0 0 0 9.769-1.602 7 7 0 0 0-1.601-9.77l-48.563-34.883c-2.888-2.074-4.798-5.17-5.38-8.717-.581-3.547.241-7.09 2.315-9.978 2.075-2.888 5.17-4.799 8.717-5.38 3.546-.583 7.09.241 9.978 2.315l36.542 26.248c.675.484 1.43.845 2.231 1.064 31.167 8.555 35.336 20.769 41.134 45.388 4.208 17.867 8.745 35.945 13.133 53.428l.026.103-67.26-.004zm87.502 56.379a2.789 2.789 0 0 1-2.022.818l-101.495-.007a2.838 2.838 0 0 1-2.834-2.832l-.024-24.95a2.787 2.787 0 0 1 2.834-2.838l101.498.006a2.838 2.838 0 0 1 2.834 2.833l.024 24.95a2.784 2.784 0 0 1-.815 2.02zm265.523-273.201c-6-2.255-26.827-6.675-42.852 31.153l-23.667 55.864c-7.203-1.148-14.408.543-20.304 4.777l-35.535 25.524c-36.758 10.428-43.375 27.923-49.832 55.338-4.185 17.768-8.709 35.795-13.085 53.229l-.881 3.512h-.775c-9.273 0-16.825 7.545-16.834 16.819l-.024 24.951c-.004 4.517 1.74 8.753 4.912 11.928S291.778 503 296.298 503l101.494-.007c9.274 0 16.826-7.545 16.834-16.818l.024-24.95c.004-4.518-1.74-8.755-4.913-11.93-3.172-3.174-7.405-4.922-11.92-4.922h-4.64l2.219-9.33c1.288-5.417 4.025-9.408 8.614-12.562l41.132-28.269c14.111-9.697 20.242-28.517 25.168-43.639.328-1.007.65-1.994.967-2.958l30.166-91.561c5.255-15.942-3.419-35.519-18.195-41.073zm-85.431 243.392a2.785 2.785 0 0 1 2.834 2.838l-.024 24.951a2.838 2.838 0 0 1-2.835 2.831L296.295 489a2.78 2.78 0 0 1-2.019-.818 2.783 2.783 0 0 1-.816-2.02l.024-24.95a2.839 2.839 0 0 1 2.835-2.833zm90.331-206.699-30.166 91.561c-.322.979-.649 1.98-.981 3.002-4.271 13.111-9.587 29.429-19.787 36.438l-41.132 28.269c-7.411 5.093-12.224 12.111-14.305 20.859l-2.99 12.571-67.26.004.026-.103c4.388-17.482 8.925-35.561 13.133-53.428 5.798-24.619 9.968-36.833 41.134-45.388a7.017 7.017 0 0 0 2.231-1.064l36.542-26.248c2.888-2.075 6.429-2.896 9.978-2.315 3.546.581 6.642 2.492 8.717 5.38 2.074 2.888 2.896 6.431 2.315 9.978-.582 3.547-2.492 6.643-5.38 8.717l-48.562 34.883a7 7 0 0 0 8.168 11.372l48.562-34.883c5.925-4.256 9.842-10.585 11.028-17.822s-.504-14.486-4.76-20.411a27.355 27.355 0 0 0-5.116-5.4l23.745-56.048c7.533-17.781 16.896-26.567 25.036-23.509 7.047 2.646 12.966 14.051 9.824 23.585zm-220.392 2.922 35.43 61.366a6.999 6.999 0 0 0 12.697-1.268l13.33-39.634 40.987 8.273a6.999 6.999 0 0 0 7.447-10.361l-32.437-56.183c20.979-22.083 33.87-51.918 33.87-84.709C379.08 64.214 323.867 9 256 9S132.92 64.214 132.92 132.08c0 32.791 12.891 62.626 33.87 84.708l-31.163 53.976a6.999 6.999 0 0 0 7.447 10.361l40.988-8.272 13.33 39.633a6.998 6.998 0 0 0 6.637 4.768 6.999 6.999 0 0 0 6.06-3.5l34.156-59.159c3.871.368 7.791.564 11.757.564a123.79 123.79 0 0 0 11.754-.563zm58.175 5.519a6.997 6.997 0 0 0-8.02 4.63l-10.354 30.787-24.982-43.27c19.514-4.312 37.303-13.265 52.145-25.644l23.05 39.924zM256 23c60.147 0 109.08 48.934 109.08 109.08S316.147 241.16 256 241.16s-109.08-48.934-109.08-109.08S195.853 23 256 23zm-50.283 270.325-10.354-30.786a7.002 7.002 0 0 0-8.02-4.63l-31.839 6.426 21.776-37.717c14.841 12.379 32.63 21.332 52.145 25.644zM256 224.192c50.791 0 92.112-41.321 92.112-92.112S306.791 39.968 256 39.968s-92.113 41.321-92.113 92.112 41.322 92.112 92.113 92.112zm0-170.224c43.071 0 78.112 35.041 78.112 78.112S299.071 210.192 256 210.192c-43.072 0-78.113-35.041-78.113-78.112S212.928 53.968 256 53.968zm-40.177 127.757a6.998 6.998 0 0 0 6.778 8.753 6.99 6.99 0 0 0 3.761-1.097L256 170.495l29.638 18.886a7 7 0 0 0 10.538-7.656l-8.803-34.023 27.121-22.353a6.999 6.999 0 0 0-4.025-12.388l-35.079-2.142-12.877-32.7a7 7 0 0 0-13.026 0l-12.877 32.7-35.079 2.142a7 7 0 0 0-4.025 12.388l27.12 22.353zm4.303-55.874 21.789-1.33a7 7 0 0 0 6.086-4.423L256 99.787l7.998 20.311a7.001 7.001 0 0 0 6.086 4.423l21.789 1.33-16.845 13.884a7 7 0 0 0-2.325 7.154l5.468 21.134-18.409-11.73a6.996 6.996 0 0 0-7.523 0l-18.409 11.73 5.467-21.134a6.997 6.997 0 0 0-2.325-7.154z" fill="#ffffff" opacity="1" data-original="#000000"></path></g></svg>