<?xml version="1.0" encoding="UTF-8"?>
<svg xmlns="http://www.w3.org/2000/svg" id="Layer_1" data-name="Layer 1" viewBox="0 0 64 64" width="512" height="512"><path d="M56,16a1,1,0,0,0,1-1V11a1,1,0,0,0-1-1l-1.47412-.0249a8.70354,8.70354,0,0,0-.67529-1.583l1.04882-1.04883a.99962.99962,0,0,0,0-1.41406L52.0708,3.10059a.99962.99962,0,0,0-1.41406,0l-1.061,1.02587A8.64854,8.64854,0,0,0,48,3.48242V2a1,1,0,0,0-1-1H43a1,1,0,0,0-1,1l-.0249,1.47412a8.70354,8.70354,0,0,0-1.583.67529L39.34326,3.10059a.99962.99962,0,0,0-1.41406,0L36,5.02979V5H14.77783A4.8985,4.8985,0,0,0,10,10V58a4.8985,4.8985,0,0,0,4.77783,5H41.22217A4.8985,4.8985,0,0,0,46,58V25h1a1,1,0,0,0,1-1l.0249-1.47412a8.70354,8.70354,0,0,0,1.583-.67529l1.04883,1.04882a.99962.99962,0,0,0,1.41406,0l2.82861-2.82861a.99962.99962,0,0,0,0-1.41406l-1.02587-1.061A8.64854,8.64854,0,0,0,54.51758,16ZM41.22217,61H14.77783A2.89854,2.89854,0,0,1,12,58H44A2.89854,2.89854,0,0,1,41.22217,61ZM44,56H12V10a2.89854,2.89854,0,0,1,2.77783-3H34.87842a.99161.99161,0,0,0,.22217.34326l1.02587,1.061A8.64854,8.64854,0,0,0,35.48242,10H34a1,1,0,0,0-1,1v4a1,1,0,0,0,1,1l1.47412.0249a8.70354,8.70354,0,0,0,.67529,1.583l-1.04882,1.04883a.99962.99962,0,0,0,0,1.41406l2.82861,2.82861a.99962.99962,0,0,0,1.41406,0l1.061-1.02587a8.64854,8.64854,0,0,0,1.5957.644V24a1,1,0,0,0,1,1h1Zm8.61963-40.58057a7.91508,7.91508,0,0,1-.52051,1.25342,2.00021,2.00021,0,0,0,.3374,2.34912l.3418.3418-1.41455,1.41455-.3418-.3418a2.00138,2.00138,0,0,0-2.34912-.3374,7.91508,7.91508,0,0,1-1.25342.52051A2.00064,2.00064,0,0,0,46,22.51758V23H44v-.48242a2.00064,2.00064,0,0,0-1.41943-1.89795,7.91508,7.91508,0,0,1-1.25342-.52051,1.99763,1.99763,0,0,0-2.34912.3374l-.3418.3418-1.41455-1.41455.3418-.3418a2.00021,2.00021,0,0,0,.3374-2.34912,7.91508,7.91508,0,0,1-.52051-1.25342A2.00064,2.00064,0,0,0,35.48242,14H35V12h.48242a2.00064,2.00064,0,0,0,1.898-1.41943,7.91508,7.91508,0,0,1,.52051-1.25342,2.00021,2.00021,0,0,0-.3374-2.34912l-.3418-.3418,1.41455-1.41455.3418.3418a1.9983,1.9983,0,0,0,2.34912.3374,7.91508,7.91508,0,0,1,1.25342-.52051A2.00064,2.00064,0,0,0,44,3.48242V3h2v.48242a2.00064,2.00064,0,0,0,1.41943,1.898,7.91508,7.91508,0,0,1,1.25342.52051,2.00183,2.00183,0,0,0,2.34912-.3374l.3418-.3418,1.41455,1.41455-.3418.3418a2.00021,2.00021,0,0,0-.3374,2.34912,7.91508,7.91508,0,0,1,.52051,1.25342A2.00064,2.00064,0,0,0,54.51758,12H55v2h-.48242A2.00064,2.00064,0,0,0,52.61963,15.41943Z"/><path d="M45,7.0498A5.9502,5.9502,0,1,0,50.9502,13,5.95719,5.95719,0,0,0,45,7.0498Zm0,9.9004A3.9502,3.9502,0,1,1,48.9502,13,3.95458,3.95458,0,0,1,45,16.9502Z"/><path d="M39,28H20.049l-1.09973-3.31494A.99972.99972,0,0,0,18,24H14v2h3.27832l5.30762,15.99805A3.00423,3.00423,0,0,0,25.415,44H35V42H25.415a.99619.99619,0,0,1-.937-.64941L24.36169,41H35a1.00079,1.00079,0,0,0,.93994-.6582l4-11A1.0004,1.0004,0,0,0,39,28ZM34.2998,39H23.69824l-2.98578-9H37.57227Z"/><rect x="14" y="10" width="17" height="2"/><rect x="24" y="45" width="3" height="3" rx="1.5"/><rect x="31.67691" y="45" width="3" height="3" rx="1.5"/></svg>
