<svg xmlns="http://www.w3.org/2000/svg" version="1.1" xmlns:xlink="http://www.w3.org/1999/xlink" width="512" height="512" x="0" y="0" viewBox="0 0 511.999 511.999" style="enable-background:new 0 0 512 512" xml:space="preserve"><g><path d="m458.529 340.171-33.374-7.974v-11.723c18.434-10.89 30.833-30.956 30.833-53.874v-44.247c0-34.483-28.055-62.537-62.538-62.537h-6.916c-18.411 0-34.985 8.001-46.439 20.704-11.093-35.905-44.595-62.068-84.095-62.068s-73.002 26.161-84.095 62.068c-11.454-12.703-28.028-20.704-46.439-20.704h-6.916c-34.483 0-62.539 28.054-62.539 62.537V266.6c0 22.917 12.399 42.984 30.833 53.874v11.723l-33.374 7.974C21.996 347.691.014 375.542.014 407.901v30.102c0 5.522 4.478 9.999 9.999 9.999h80.762a94.39 94.39 0 0 0-.767 12.02V492H30.012c-5.522 0-9.999 4.478-9.999 9.999 0 5.522 4.478 9.999 9.999 9.999h451.974c5.522 0 9.999-4.478 9.999-9.999 0-5.522-4.478-9.999-9.999-9.999H421.99v-31.93c0-4.083-.263-8.111-.773-12.067h80.768c5.522 0 9.999-4.478 9.999-9.999v-30.102c.001-32.36-21.982-60.212-53.455-67.731zM343.996 222.353c-.001-23.456 19.082-42.539 42.539-42.539h6.916c23.457 0 42.54 19.083 42.54 42.539v2.564a75.504 75.504 0 0 1-40.522-12.345 9.992 9.992 0 0 0-10.95 0 75.487 75.487 0 0 1-40.522 12.345v-2.564zm-.001 36.091v-13.526c16.19-.156 31.952-4.372 45.997-12.283 14.045 7.912 29.807 12.127 45.997 12.283v21.683c0 23.457-19.083 42.54-42.54 42.54h-6.916c-23.457 0-42.54-19.083-42.54-42.54v-8.157zm19.178 115.096a94.292 94.292 0 0 0-12.625-3.986l-31.78-7.593a49.622 49.622 0 0 1 7.299-2.365l31.587-7.57 5.519 21.514zm-8.278-53.027v11.61l-33.489 8.025a69.483 69.483 0 0 0-20.358 8.471v-14.614a88.647 88.647 0 0 0 32.568-34.138 62.989 62.989 0 0 0 21.279 20.646zm-30.898-62.069c0 37.493-30.503 67.996-67.996 67.996s-67.996-30.503-67.996-67.996v-29.292h10.99c28.073 0 54.819-8.958 76.807-25.226l2.292 3.425a49.012 49.012 0 0 0 40.811 21.801h5.093v29.292zm-135.994-51.998c0-37.492 30.503-67.995 67.996-67.995 37.493 0 67.996 30.503 67.996 67.996v2.706h-5.093a29.048 29.048 0 0 1-24.188-12.921l-3.698-5.528a131.051 131.051 0 0 0 8.59-9.604c3.472-4.295 2.804-10.591-1.492-14.062-4.292-3.472-10.59-2.805-14.062 1.492-20.863 25.816-51.865 40.622-85.058 40.622h-10.991v-2.706zm-9.62 93.421a88.64 88.64 0 0 0 32.66 34.193v14.615a69.49 69.49 0 0 0-20.451-8.526l-33.488-8.025v-11.61a63.02 63.02 0 0 0 21.279-20.647zm14.738 62.05-31.736 7.605a94.246 94.246 0 0 0-12.547 3.965l5.507-21.459 31.586 7.57c2.465.59 4.866 1.37 7.19 2.319zM76.011 222.353c-.001-23.456 19.082-42.539 42.539-42.539h6.916c23.457 0 42.54 19.083 42.54 42.539v2.564a75.504 75.504 0 0 1-40.522-12.345 9.992 9.992 0 0 0-10.95 0 75.484 75.484 0 0 1-40.522 12.345v-2.564zm-.001 44.248v-21.683c16.19-.156 31.952-4.372 45.997-12.283 14.045 7.912 29.807 12.127 45.997 12.283v21.683c0 23.457-19.083 42.54-42.54 42.54h-6.916c-23.455 0-42.538-19.083-42.538-42.54zm19.64 161.406H20.013v-20.105c0-23.066 15.669-42.92 38.103-48.278l31.485-7.522 14.875 57.982a92.515 92.515 0 0 0-8.826 17.923zm11.194-99.983a62.546 62.546 0 0 0 11.705 1.115h6.916c3.979 0 7.866-.389 11.64-1.103v10.71l-12.53 48.835a92.381 92.381 0 0 0-4.287 3.65l-13.444-52.405v-10.802zm3.164 163.977v-31.976c0-24.249 11.775-46.086 30.536-59.464l91.44 91.44H110.008zm49.222-101.037a74.128 74.128 0 0 1 6.816-1.994l47.756-11.444 23.471 91.481-78.043-78.043zm71.811-26.718V342.83a87.736 87.736 0 0 0 24.958 3.611c8.7 0 17.106-1.275 25.05-3.638v21.558l-24.988 97.401-25.02-97.516zm67.249 13.386 47.612 11.374a74.046 74.046 0 0 1 7.016 2.06l-78.113 78.114 23.485-91.548zm103.701 114.369H280.266l91.306-91.307c18.693 13.381 30.419 35.174 30.419 59.377v31.93zm3.166-153.173-13.454 52.441a92.524 92.524 0 0 0-4.264-3.63l-12.544-48.891v-10.71a62.55 62.55 0 0 0 11.64 1.103h6.916c4.002 0 7.912-.393 11.706-1.115v10.802zm86.829 89.177h-75.652a92.58 92.58 0 0 0-8.819-17.893l14.882-58.011 31.485 7.522c22.435 5.359 38.103 25.213 38.103 48.278v20.104zM255.999 0C250.478 0 246 4.478 246 9.999v42.814c0 5.523 4.477 9.999 9.999 9.999s9.999-4.478 9.999-9.999V9.999C265.999 4.478 261.521 0 255.999 0zM263.068 80.515a10.076 10.076 0 0 0-7.069-2.93c-2.641 0-5.21 1.07-7.07 2.93a10.06 10.06 0 0 0-2.93 7.07c0 2.63 1.069 5.21 2.93 7.07 1.86 1.86 4.44 2.93 7.07 2.93s5.21-1.07 7.069-2.93a10.094 10.094 0 0 0 2.931-7.07c0-2.64-1.07-5.21-2.931-7.07zM189.504 82.784l-37.051-37.043c-3.905-3.905-10.236-3.903-14.142.002-3.904 3.905-3.903 10.236.002 14.142l37.052 37.043a9.969 9.969 0 0 0 7.07 2.928 9.97 9.97 0 0 0 7.072-2.93c3.903-3.904 3.902-10.236-.003-14.142zM375.182 44.187c-3.905-3.902-10.234-3.904-14.142 0l-39.308 39.307c-3.905 3.905-3.905 10.236 0 14.142 1.954 1.953 4.513 2.929 7.072 2.929s5.118-.977 7.071-2.929l39.308-39.307c3.904-3.905 3.904-10.237-.001-14.142z" fill="#ffffff" opacity="1" data-original="#000000"></path></g></svg>