<svg xmlns="http://www.w3.org/2000/svg" version="1.1" xmlns:xlink="http://www.w3.org/1999/xlink" width="512" height="512" x="0" y="0" viewBox="0 0 512 512" style="enable-background:new 0 0 512 512" xml:space="preserve" class=""><g><path d="M99.846 335.673h-60.92c-9.333 0-16.926-7.592-16.926-16.925V97.875c0-9.332 7.593-16.925 16.925-16.925h371.28c9.332 0 16.924 7.593 16.924 16.925v19.975a6 6 0 1 0 12 0V97.875c0-15.949-12.975-28.925-28.925-28.925H38.925C22.976 68.95 10 81.926 10 97.875v220.873c0 15.95 12.976 28.925 28.925 28.925h60.92a6 6 0 0 0 0-12z" fill="#ffffff" opacity="1" data-original="#000000"></path><path d="M464.6 132.516H359.708c-20.623 0-37.4 16.777-37.4 37.4v64.85a6 6 0 0 0 12 0v-64.85c0-14.006 11.395-25.4 25.4-25.4H464.6c14.005 0 25.4 11.394 25.4 25.4V405.65c0 14.005-11.395 25.4-25.4 25.4H359.708c-14.005 0-25.4-11.395-25.4-25.4V294.894h40.765a3.124 3.124 0 0 0 3.124-3.124v-26.137a3.124 3.124 0 0 0-3.124-3.124h-71.898v-23.375c0-1.456-1.714-2.233-2.809-1.274l-42.862 37.526a4.406 4.406 0 0 0 0 6.63l42.862 37.527c1.095.959 2.81.182 2.81-1.273v-23.376h19.132v40.78H130.58a6 6 0 1 0 0 12h54.414v54.165h-15.107a6 6 0 0 0 0 12h109.355a6 6 0 1 0 0-12h-15.106v-54.166h58.172v57.977c0 20.622 16.777 37.4 37.4 37.4H464.6c20.623 0 37.4-16.778 37.4-37.4V169.916c0-20.623-16.777-37.4-37.4-37.4z" fill="#ffffff" opacity="1" data-original="#000000"></path><path d="M435.424 181.298a9.153 9.153 0 0 0 0-18.306h-46.54a9.153 9.153 0 0 0 0 18.306zM258.809 222.14l42.862-37.526a4.406 4.406 0 0 0 0-6.63l-42.862-37.527c-1.095-.96-2.809-.182-2.809 1.273v23.376h-71.898a3.124 3.124 0 0 0-3.124 3.124v26.137a3.124 3.124 0 0 0 3.124 3.124H256v23.375c0 1.456 1.714 2.233 2.809 1.274z" fill="#ffffff" opacity="1" data-original="#000000"></path></g></svg>