<svg xmlns="http://www.w3.org/2000/svg" version="1.1" xmlns:xlink="http://www.w3.org/1999/xlink" width="512" height="512" x="0" y="0" viewBox="0 0 64 64" style="enable-background:new 0 0 512 512" xml:space="preserve" class=""><g><path d="M22 23h-7v-7a1 1 0 0 0-1-1 9 9 0 1 0 9 9 1 1 0 0 0-1-1Zm-9-5.929v6.515l-4.6 4.6A6.985 6.985 0 0 1 13 17.071ZM14 31a6.953 6.953 0 0 1-4.184-1.4l4.6-4.6h6.515A7.011 7.011 0 0 1 14 31Z" fill="#ffffff" opacity="1" data-original="#000000" class=""></path><path d="M18 21h8a1 1 0 0 0 1-1 9.011 9.011 0 0 0-9-9 1 1 0 0 0-1 1v8a1 1 0 0 0 1 1Zm1-7.929A7.018 7.018 0 0 1 24.929 19H19ZM39 26a13 13 0 1 0 13 13 13.015 13.015 0 0 0-13-13Zm-5 9v-5.786a10.974 10.974 0 0 1 2-.788V35Zm12 2v2H32v-2Zm-4-2v-6.574a10.974 10.974 0 0 1 2 .788V35Zm-2-6.949V35h-2v-6.949c.33-.03.662-.051 1-.051s.67.021 1 .051Zm-8 2.47V35h-1a1 1 0 0 0-1 1v4a1 1 0 0 0 1 1h16a1 1 0 0 0 1-1v-4a1 1 0 0 0-1-1h-1v-4.479A10.948 10.948 0 0 1 49.236 43H28.764A10.948 10.948 0 0 1 32 30.521ZM39 50a11 11 0 0 1-9.208-5h18.416A11 11 0 0 1 39 50Z" fill="#ffffff" opacity="1" data-original="#000000" class=""></path><path d="m61.671 55.257-4.326-4.326A2 2 0 0 0 57 48.586l-2.545-2.545A16.883 16.883 0 0 0 53 29.378V4a3 3 0 0 0-3-3H4a3 3 0 0 0-3 3v38a3 3 0 0 0 3 3h19.114a16.934 16.934 0 0 0 22.927 9.455L48.586 57a1.972 1.972 0 0 0 2.345.345l4.326 4.326a4.535 4.535 0 1 0 6.414-6.414ZM4 3h46a1 1 0 0 1 1 1v3H3V4a1 1 0 0 1 1-1Zm0 40a1 1 0 0 1-1-1V9h48v17.971a17.056 17.056 0 0 0-5-3.445V12a1 1 0 0 0-1-1h-4a1 1 0 0 0-1 1v10.051c-.333-.02-.662-.051-1-.051s-.667.031-1 .051V18a1 1 0 0 0-1-1h-4a1 1 0 0 0-1 1v5.526A16.882 16.882 0 0 0 22.5 43Zm40-20.247a16.817 16.817 0 0 0-2-.472V13h2Zm-8-.472a16.817 16.817 0 0 0-2 .472V19h2ZM24 39a15 15 0 1 1 15 15 15.017 15.017 0 0 1-15-15Zm23.882 14.468a17.1 17.1 0 0 0 5.586-5.586L55.586 50 50 55.586ZM58.464 61a2.52 2.52 0 0 1-1.793-.743L52.414 56 56 52.414l4.257 4.257A2.536 2.536 0 0 1 58.464 61Z" fill="#ffffff" opacity="1" data-original="#000000" class=""></path><path d="M18 35H6a1 1 0 0 0-1 1v4a1 1 0 0 0 1 1h12a1 1 0 0 0 1-1v-4a1 1 0 0 0-1-1Zm-1 4H7v-2h10Z" fill="#ffffff" opacity="1" data-original="#000000" class=""></path></g></svg>