<svg xmlns="http://www.w3.org/2000/svg" version="1.1" xmlns:xlink="http://www.w3.org/1999/xlink" width="512" height="512" x="0" y="0" viewBox="0 0 512 512" style="enable-background:new 0 0 512 512" xml:space="preserve"><g><path d="m222.827 294.754 43.358-85.576c3.12-6.159 10.644-8.621 16.8-5.501 6.158 3.12 8.621 10.642 5.501 16.8l-43.358 85.576a12.499 12.499 0 0 1-11.16 6.854c-1.9 0-3.829-.435-5.64-1.353-6.158-3.12-8.621-10.642-5.501-16.8zm91.854-61.284c-4.881-4.882-12.797-4.882-17.678 0-4.882 4.881-4.882 12.796 0 17.678l18.593 18.593-18.593 18.593c-4.882 4.881-4.882 12.796 0 17.678 2.44 2.441 5.64 3.661 8.839 3.661s6.398-1.22 8.839-3.661l27.432-27.432c4.882-4.882 4.882-12.796 0-17.678zm-99.684 24.151-18.593-18.593 18.593-18.593c4.882-4.881 4.882-12.796 0-17.678-4.881-4.882-12.797-4.882-17.678 0l-27.432 27.432c-4.882 4.882-4.882 12.796 0 17.678l27.432 27.432c2.44 2.441 5.64 3.661 8.839 3.661s6.398-1.22 8.839-3.661c4.882-4.882 4.882-12.797 0-17.678zM400.792 62.25v387.5c0 24.124-19.626 43.75-43.75 43.75H154.958c-24.124 0-43.75-19.626-43.75-43.75V62.25c0-24.124 19.626-43.75 43.75-43.75h202.084c24.124 0 43.75 19.626 43.75 43.75zM192.772 43.5l8.705 18.75h109.045l8.705-18.75zm183.02 18.75c0-10.339-8.411-18.75-18.75-18.75h-10.251l-16.953 36.514A12.501 12.501 0 0 1 318.5 87.25h-125a12.501 12.501 0 0 1-11.338-7.236L165.209 43.5h-10.251c-10.339 0-18.75 8.411-18.75 18.75v387.5c0 10.339 8.411 18.75 18.75 18.75h202.084c10.339 0 18.75-8.411 18.75-18.75zm-85.417 366.667h-68.75c-6.903 0-12.5 5.596-12.5 12.5s5.597 12.5 12.5 12.5h68.75c6.903 0 12.5-5.596 12.5-12.5s-5.597-12.5-12.5-12.5z" fill="#ffffff" opacity="1" data-original="#000000"></path></g></svg>