<svg xmlns="http://www.w3.org/2000/svg" version="1.1" xmlns:xlink="http://www.w3.org/1999/xlink" width="512" height="512" x="0" y="0" viewBox="0 0 24 24" style="enable-background:new 0 0 512 512" xml:space="preserve"><g><path d="M6.529 17.427a.508.508 0 0 1-.186-.036A8.46 8.46 0 0 1 1 9.5C1 4.813 4.813 1 9.5 1S18 4.813 18 9.5c0 2.809-1.39 5.44-3.717 7.04a.5.5 0 1 1-.566-.824A7.548 7.548 0 0 0 17 9.5C17 5.364 13.636 2 9.5 2S2 5.364 2 9.5a7.466 7.466 0 0 0 4.715 6.963.498.498 0 0 1-.186.964z" fill="#ffffff" opacity="1" data-original="#000000"></path><path d="M10 13H7.5a.5.5 0 0 1 0-1H10a1.001 1.001 0 0 0 0-2H9c-1.103 0-2-.897-2-2s.897-2 2-2h2.5a.5.5 0 0 1 0 1H9a1.001 1.001 0 0 0 0 2h1c1.103 0 2 .897 2 2s-.897 2-2 2z" fill="#ffffff" opacity="1" data-original="#000000"></path><path d="M9.5 7a.5.5 0 0 1-.5-.5v-2a.5.5 0 0 1 1 0v2a.5.5 0 0 1-.5.5zM9.5 15a.5.5 0 0 1-.5-.5v-2a.5.5 0 0 1 1 0v2a.5.5 0 0 1-.5.5zM.5 24a.5.5 0 0 1-.269-.921l11-7a.5.5 0 0 1 .622.068l3.646 3.646 7.646-7.646a.5.5 0 0 1 .707.707l-8 8a.5.5 0 0 1-.707 0l-3.717-3.717L.769 23.922A.497.497 0 0 1 .5 24z" fill="#ffffff" opacity="1" data-original="#000000"></path><path d="M23.5 17a.5.5 0 0 1-.5-.5V13h-3.5a.5.5 0 0 1 0-1h4a.5.5 0 0 1 .5.5v4a.5.5 0 0 1-.5.5z" fill="#ffffff" opacity="1" data-original="#000000"></path></g></svg>