<svg xmlns="http://www.w3.org/2000/svg" version="1.1" xmlns:xlink="http://www.w3.org/1999/xlink" width="512" height="512" x="0" y="0" viewBox="0 0 512 512" style="enable-background:new 0 0 512 512" xml:space="preserve"><g><path d="M501.222 135.5H10.333M35.667 433.5H25.5c-9.941 0-18-8.059-18-18v-352c0-9.941 8.059-18 18-18h34.833M243 433.5h-34.167M96.667 45.5H486.5c9.941 0 18 8.059 18 18v352c0 9.941-8.059 18-18 18h-10.667" style="stroke-width:15;stroke-linecap:round;stroke-linejoin:round;stroke-miterlimit:10;" fill="none" stroke="#ffffff" stroke-width="15" stroke-linecap="round" stroke-linejoin="round" stroke-miterlimit="10" data-original="#000000" opacity="1"></path><path d="M411 466.5H254.5c-5.523 0-10-4.477-10-10v-100c0-5.523 4.477-10 10-10h210c5.523 0 10 4.477 10 10v100c0 5.523-4.477 10-10 10H446M244.5 302.538V177.462c0-6.054 4.908-10.962 10.962-10.962h208.077c6.054 0 10.962 4.908 10.962 10.962v125.077c0 6.054-4.908 10.962-10.962 10.962H255.462c-6.054-.001-10.962-4.909-10.962-10.963z" style="stroke-width:15;stroke-linecap:round;stroke-linejoin:round;stroke-miterlimit:10;" fill="none" stroke="#ffffff" stroke-width="15" stroke-linecap="round" stroke-linejoin="round" stroke-miterlimit="10" data-original="#000000" opacity="1"></path><path d="M384.5 265.5v-52a4 4 0 0 1 4-4h52a4 4 0 0 1 4 4v52a4 4 0 0 1-4 4h-52a4 4 0 0 1-4-4zM384.5 432.5v-52a4 4 0 0 1 4-4h52a4 4 0 0 1 4 4v52a4 4 0 0 1-4 4h-52a4 4 0 0 1-4-4zM37.5 455.538V177.462c0-6.054 4.908-10.962 10.962-10.962h148.077c6.054 0 10.962 4.908 10.962 10.962v278.077c0 6.054-4.908 10.962-10.962 10.962H48.462c-6.054-.001-10.962-4.909-10.962-10.963z" style="stroke-width:15;stroke-linecap:round;stroke-linejoin:round;stroke-miterlimit:10;" fill="none" stroke="#ffffff" stroke-width="15" stroke-linecap="round" stroke-linejoin="round" stroke-miterlimit="10" data-original="#000000" opacity="1"></path><path d="M67.5 432.094v-51.188a4.406 4.406 0 0 1 4.406-4.406h101.188a4.406 4.406 0 0 1 4.406 4.406v51.188a4.406 4.406 0 0 1-4.406 4.406H71.906a4.406 4.406 0 0 1-4.406-4.406z" style="stroke-width:15;stroke-linecap:round;stroke-linejoin:round;stroke-miterlimit:10;" fill="none" stroke="#ffffff" stroke-width="15" stroke-linecap="round" stroke-linejoin="round" stroke-miterlimit="10" data-original="#000000" opacity="1"></path><circle cx="300.144" cy="90.5" r="15" style="stroke-width:15;stroke-linecap:round;stroke-linejoin:round;stroke-miterlimit:10;" fill="none" stroke="#ffffff" stroke-width="15" stroke-linecap="round" stroke-linejoin="round" stroke-miterlimit="10" data-original="#000000" opacity="1"></circle><circle cx="362.644" cy="90.5" r="15" style="stroke-width:15;stroke-linecap:round;stroke-linejoin:round;stroke-miterlimit:10;" fill="none" stroke="#ffffff" stroke-width="15" stroke-linecap="round" stroke-linejoin="round" stroke-miterlimit="10" data-original="#000000" opacity="1"></circle><circle cx="425.144" cy="90.5" r="15" style="stroke-width:15;stroke-linecap:round;stroke-linejoin:round;stroke-miterlimit:10;" fill="none" stroke="#ffffff" stroke-width="15" stroke-linecap="round" stroke-linejoin="round" stroke-miterlimit="10" data-original="#000000" opacity="1"></circle><path d="M282.667 209.5h42.065M282.667 239.5h60M282.667 269.5h60M285.144 376.5h42.065M285.144 406.5h60M285.144 436.5h60M73.587 210h68.585M140.099 309.146h28.727M73.587 240h97.826M73.587 270h97.826" style="stroke-width:15;stroke-linecap:round;stroke-linejoin:round;stroke-miterlimit:10;" fill="none" stroke="#ffffff" stroke-width="15" stroke-linecap="round" stroke-linejoin="round" stroke-miterlimit="10" data-original="#000000" opacity="1"></path></g></svg>