<svg xmlns="http://www.w3.org/2000/svg" version="1.1" xmlns:xlink="http://www.w3.org/1999/xlink" width="512" height="512" x="0" y="0" viewBox="0 0 64 64" style="enable-background:new 0 0 512 512" xml:space="preserve"><g><path d="M28 52H5a5.006 5.006 0 0 1-5-5V5a5.006 5.006 0 0 1 5-5h2v2H5a3 3 0 0 0-3 3v42a3 3 0 0 0 3 3h23zM9 0h2.001v2H9zM59 52v-2a3 3 0 0 0 3-3V5a3 3 0 0 0-3-3H13V0h46a5.006 5.006 0 0 1 5 5v42a5.006 5.006 0 0 1-5 5z" fill="#ffffff" opacity="1" data-original="#000000"></path><path d="m19.03 54.778 1.002-4 1.94.487-1.002 4z" fill="#ffffff" opacity="1" data-original="#000000"></path><path d="M28 60H18a1 1 0 0 1-1-1v-2a3 3 0 0 1 3-3h8v2h-8a1 1 0 0 0-1 1v1h9zM1 42h27v2H1zM4 46h2v2H4zM8 46h6v2H8zM55 64H35a5.006 5.006 0 0 1-5-5V19a5.006 5.006 0 0 1 5-5h20a5.006 5.006 0 0 1 5 5v40a5.006 5.006 0 0 1-5 5zM35 16a3 3 0 0 0-3 3v40a3 3 0 0 0 3 3h20a3 3 0 0 0 3-3V19a3 3 0 0 0-3-3z" fill="#ffffff" opacity="1" data-original="#000000"></path><path d="M50 24H40c-1.874 0-2.659-1.632-2.907-3H31v-2h7a1 1 0 0 1 1 1c0 .017.056 2 1 2h10c.944 0 1-1.983 1-2a1 1 0 0 1 1-1h7v2h-6.093c-.248 1.368-1.033 3-2.907 3z" fill="#ffffff" opacity="1" data-original="#000000"></path><path d="M41 18h8v2h-8zM41 59h8v2h-8zM31 56h28v2H31zM18 28h-4a1 1 0 0 1-1-1v-1.466a9.941 9.941 0 0 1-1.619-.672L10.343 25.9a1 1 0 0 1-1.414 0L6.1 23.071a1 1 0 0 1 0-1.414l1.037-1.038A9.941 9.941 0 0 1 6.466 19H5a1 1 0 0 1-1-1v-4a1 1 0 0 1 1-1h1.466a9.941 9.941 0 0 1 .672-1.619L6.1 10.343a1 1 0 0 1 0-1.414L8.929 6.1a1 1 0 0 1 1.414 0l1.038 1.037A9.941 9.941 0 0 1 13 6.466V5a1 1 0 0 1 1-1h4a1 1 0 0 1 1 1v1.466a9.941 9.941 0 0 1 1.619.672L21.657 6.1a1 1 0 0 1 1.414 0L25.9 8.929a1 1 0 0 1 0 1.414l-1.037 1.038A9.941 9.941 0 0 1 25.534 13H27a1 1 0 0 1 1 1v4a1 1 0 0 1-1 1h-1.466a9.941 9.941 0 0 1-.672 1.619l1.038 1.038a1 1 0 0 1 0 1.414L23.071 25.9a1 1 0 0 1-1.414 0l-1.038-1.037a9.941 9.941 0 0 1-1.619.671V27a1 1 0 0 1-1 1zm-3-2h2v-1.23a1 1 0 0 1 .778-.976 7.917 7.917 0 0 0 2.473-1.027 1 1 0 0 1 1.241.139l.872.872 1.414-1.414-.872-.872a1 1 0 0 1-.139-1.241 7.917 7.917 0 0 0 1.027-2.473A1 1 0 0 1 24.77 17H26v-2h-1.23a1 1 0 0 1-.976-.778 7.917 7.917 0 0 0-1.027-2.473 1 1 0 0 1 .139-1.241l.872-.872-1.414-1.414-.872.872a1 1 0 0 1-1.241.139 7.917 7.917 0 0 0-2.473-1.027A1 1 0 0 1 17 7.23V6h-2v1.23a1 1 0 0 1-.778.976 7.917 7.917 0 0 0-2.473 1.027 1 1 0 0 1-1.241-.139l-.872-.872-1.414 1.414.872.872a1 1 0 0 1 .139 1.241 7.917 7.917 0 0 0-1.027 2.473A1 1 0 0 1 7.23 15H6v2h1.23a1 1 0 0 1 .976.778 7.917 7.917 0 0 0 1.027 2.473 1 1 0 0 1-.139 1.241l-.872.872 1.414 1.414.872-.872a1 1 0 0 1 1.241-.139 7.917 7.917 0 0 0 2.473 1.027 1 1 0 0 1 .778.976z" fill="#ffffff" opacity="1" data-original="#000000"></path><path d="M16 21a5 5 0 1 1 5-5 5.006 5.006 0 0 1-5 5zm0-8a3 3 0 1 0 3 3 3 3 0 0 0-3-3zM17 41h-2v-4a1 1 0 0 1 1-1h1.466a9.941 9.941 0 0 1 .672-1.619L17.1 33.343a1 1 0 0 1 0-1.414l2.829-2.829a1 1 0 0 1 1.414 0l1.038 1.037A9.941 9.941 0 0 1 24 29.466V28a1 1 0 0 1 1-1h4v2h-3v1.23a1 1 0 0 1-.778.976 7.917 7.917 0 0 0-2.473 1.027 1 1 0 0 1-1.241-.139l-.872-.872-1.414 1.414.872.872a1 1 0 0 1 .139 1.241 7.917 7.917 0 0 0-1.027 2.473 1 1 0 0 1-.976.778H17zM24 39h-2a5.006 5.006 0 0 1 5-5v2a3 3 0 0 0-3 3zM45 50a11 11 0 1 1 11-11 11.013 11.013 0 0 1-11 11zm0-20a9 9 0 1 0 9 9 9.011 9.011 0 0 0-9-9z" fill="#ffffff" opacity="1" data-original="#000000"></path><path d="M43 46a1 1 0 0 1-.707-.293l-5-5a1 1 0 0 1 0-1.414l3-3a1 1 0 0 1 1.414 0L43 37.586l5.293-5.293a1 1 0 0 1 1.414 0l3 3a1 1 0 0 1 0 1.414l-9 9A1 1 0 0 1 43 46zm-3.586-6L43 43.586 50.586 36 49 34.414l-5.293 5.293a1 1 0 0 1-1.414 0L41 38.414zM57 4h2v2h-2zM42 4h13v2H42z" fill="#ffffff" opacity="1" data-original="#000000"></path></g></svg>