<svg xmlns="http://www.w3.org/2000/svg" version="1.1" xmlns:xlink="http://www.w3.org/1999/xlink" width="512" height="512" x="0" y="0" viewBox="0 0 52 52" style="enable-background:new 0 0 512 512" xml:space="preserve"><g><path d="M49 21a1 1 0 0 0-1 1v17a1 1 0 0 1-1 1H5a1 1 0 0 1-1-1V11a1 1 0 0 1 1-1h15a1 1 0 1 0 0-2H5c-1.654 0-3 1.346-3 3v28c0 1.654 1.346 3 3 3h42c1.654 0 3-1.346 3-3V22a1 1 0 0 0-1-1zM34 48h-2v-3a1 1 0 1 0-2 0v3h-8v-3a1 1 0 1 0-2 0v3h-2a1 1 0 1 0 0 2h16a1 1 0 1 0 0-2z" fill="#ffffff" opacity="1" data-original="#000000"></path><path d="M17 33a1 1 0 1 0 0 2h26a1 1 0 1 0 0-2zM9 33a1 1 0 1 0 0 2h3a1 1 0 1 0 0-2zM23.643 18.234l1.596.319c.104.285.219.564.346.836l-.902 1.353a2.048 2.048 0 0 0 .255 2.579l1.742 1.741a2.046 2.046 0 0 0 2.578.256l1.36-.906c.274.129.551.245.828.348l.319 1.598A2.048 2.048 0 0 0 33.769 28h2.463c.971 0 1.813-.69 2.004-1.643l.319-1.597c.285-.104.564-.219.836-.345l1.354.903a2.05 2.05 0 0 0 2.577-.257l1.742-1.741a2.048 2.048 0 0 0 .255-2.579l-.906-1.359c.13-.274.246-.552.349-.828l1.597-.32A2.047 2.047 0 0 0 48 16.231v-2.464c0-.97-.69-1.812-1.643-2.003l-1.596-.319a10.623 10.623 0 0 0-.345-.836l.901-1.353a2.048 2.048 0 0 0-.255-2.579L43.32 4.936a2.048 2.048 0 0 0-2.578-.256l-1.36.906a10.704 10.704 0 0 0-.828-.348l-.319-1.598A2.048 2.048 0 0 0 36.231 2h-2.463c-.971 0-1.813.69-2.004 1.642l-.319 1.597c-.279.103-.558.219-.831.348l-1.358-.907a2.05 2.05 0 0 0-2.577.257l-1.742 1.741a2.048 2.048 0 0 0-.255 2.579l.907 1.359c-.128.273-.244.55-.346.828l-1.601.32A2.05 2.05 0 0 0 22 13.768v2.464c0 .969.69 1.812 1.643 2.002zm.392-4.508 2.169-.434c.362-.072.656-.34.762-.694a8.457 8.457 0 0 1 .657-1.577.999.999 0 0 0-.048-1.029L26.35 8.093l1.797-1.747 1.842 1.229a.993.993 0 0 0 1.031.047 8.313 8.313 0 0 1 1.577-.658.996.996 0 0 0 .695-.762L33.769 4l2.506.034.432 2.166a1 1 0 0 0 .694.762 8.438 8.438 0 0 1 1.577.66.999.999 0 0 0 1.029-.048l1.899-1.224 1.747 1.797-1.224 1.836a.998.998 0 0 0-.047 1.031c.266.491.486 1.024.653 1.584a.998.998 0 0 0 .762.693l2.166.434.037.043-.035 2.506-2.165.433a1 1 0 0 0-.762.694 8.358 8.358 0 0 1-.661 1.576 1 1 0 0 0 .048 1.03l1.225 1.899-1.797 1.747-1.836-1.225a1.003 1.003 0 0 0-1.03-.048 8.353 8.353 0 0 1-1.585.654.998.998 0 0 0-.693.762L36.231 26l-2.506-.035-.433-2.166a1 1 0 0 0-.694-.762 8.438 8.438 0 0 1-1.577-.66 1 1 0 0 0-1.03.048l-1.899 1.224-1.747-1.797 1.225-1.836a.998.998 0 0 0 .047-1.031 8.333 8.333 0 0 1-.654-1.584.998.998 0 0 0-.762-.693L24 16.231z" fill="#ffffff" opacity="1" data-original="#000000"></path><path d="M35 21a6.006 6.006 0 0 0 5.881-7.199 1 1 0 1 0-1.961.397A4.004 4.004 0 0 1 35 19c-2.206 0-4-1.794-4-4a4.004 4.004 0 0 1 4.802-3.92 1.002 1.002 0 0 0 1.179-.782 1.002 1.002 0 0 0-.782-1.179A6.006 6.006 0 0 0 29 15c0 3.309 2.691 6 6 6z" fill="#ffffff" opacity="1" data-original="#000000"></path></g></svg>