<svg xmlns="http://www.w3.org/2000/svg" version="1.1" xmlns:xlink="http://www.w3.org/1999/xlink" width="512" height="512" x="0" y="0" viewBox="0 0 512 512" style="enable-background:new 0 0 512 512" xml:space="preserve"><g><path d="m507.169 344.876-35.675-21.545c-4.726-2.854-10.874-1.336-13.729 3.391-2.855 4.728-1.337 10.875 3.391 13.73l21.5 12.984-103.675 62.611-95.994-57.996a65.99 65.99 0 0 0-4.051-6.785l65.883-39.787c5.972 24.974 25.794 38.178 26.781 38.822 1.659 1.08 3.558 1.62 5.457 1.62s3.798-.54 5.457-1.62c1.163-.758 28.476-18.939 28.476-53.271 0-34.389-27.384-52.276-28.55-53.021a10.004 10.004 0 0 0-10.767 0c-.525.336-6.376 4.165-12.644 11.403l-68.955-41.643c-2.163-31.546-27.269-47.968-28.385-48.68a10.004 10.004 0 0 0-10.767 0c-1.111.71-26.022 17.006-28.357 48.307-.065.038-.134.067-.198.106l-69.633 42.053c-6.315-7.331-12.238-11.208-12.767-11.546a10.004 10.004 0 0 0-10.767 0c-1.04.665-22.915 14.975-27.64 42.451L4.83 344.877a10.003 10.003 0 0 0 .001 17.121l246 148.563c1.589.96 3.379 1.439 5.169 1.439s3.58-.479 5.169-1.439l246-148.563a10.003 10.003 0 0 0 0-17.122zM377.054 265.34c5.735 5.579 13.936 16.254 13.936 31.689 0 15.428-8.18 26.218-13.934 31.899-5.735-5.669-13.933-16.471-13.933-31.899.001-15.443 8.21-26.122 13.931-31.689zm-120.75-78.92c5.735 5.579 13.936 16.254 13.936 31.689 0 15.428-8.18 26.218-13.934 31.899-5.735-5.669-13.933-16.471-13.933-31.899 0-15.443 8.21-26.122 13.931-31.689zm-121.722 78.92c5.735 5.579 13.936 16.254 13.936 31.689 0 15.428-8.18 26.218-13.934 31.899-5.735-5.669-13.933-16.471-13.933-31.899 0-15.443 8.21-26.122 13.931-31.689zM29.344 353.437l72.585-43.835c5.396 26.19 26.187 40.04 27.198 40.699a9.993 9.993 0 0 0 5.457 1.62c1.899 0 3.798-.54 5.457-1.62 1.163-.758 28.476-18.939 28.476-53.271 0-9.44-2.07-17.629-5.089-24.569l61.385-37.072c6.72 23.142 25.086 35.374 26.035 35.992 1.659 1.08 3.558 1.62 5.457 1.62s3.798-.54 5.457-1.62c.945-.616 19.154-12.735 25.948-35.674l60.573 36.581a60.888 60.888 0 0 0-4.609 16.517l-78.01 47.111c-.182.11-.351.234-.523.353-2.085-1.685-3.512-2.618-3.759-2.776a10.004 10.004 0 0 0-10.767 0c-.245.157-1.662 1.084-3.733 2.755l-18.901-11.414c-4.726-2.854-10.875-1.336-13.729 3.391-2.855 4.728-1.337 10.875 3.391 13.73l15.419 9.312a65.882 65.882 0 0 0-4.051 6.785l-96.014 57.984-103.653-62.599zm240.59 33.077c0 15.428-8.18 26.218-13.934 31.899-5.735-5.669-13.933-16.471-13.933-31.899 0-15.443 8.209-26.121 13.931-31.689 5.735 5.579 13.936 16.254 13.936 31.689zM256 490.318l-103.656-62.6 69.746-42.12c-.004.308-.023.606-.023.917 0 34.332 27.313 52.514 28.476 53.271 1.659 1.08 3.558 1.62 5.457 1.62s3.798-.54 5.457-1.62c1.163-.758 28.476-18.939 28.476-53.271 0-.309-.018-.606-.022-.912l69.728 42.127L256 490.318z" fill="#ffffff" opacity="1" data-original="#000000"></path><path d="M200.56 308.61a10.076 10.076 0 0 0-7.07-2.93c-2.64 0-5.21 1.07-7.07 2.93-1.86 1.86-2.93 4.44-2.93 7.07s1.07 5.21 2.93 7.07c1.86 1.87 4.43 2.93 7.07 2.93 2.63 0 5.21-1.06 7.07-2.93a10.06 10.06 0 0 0 2.93-7.07c0-2.63-1.07-5.21-2.93-7.07zM502 0h-84.292c-5.523 0-10 4.478-10 10s4.477 10 10 10h32.146v27h-58.049V32.352C391.805 14.513 377.292 0 359.453 0h-98.906c-17.839 0-32.352 14.513-32.352 32.352V47h-58.049V20h32.146c5.523 0 10-4.478 10-10s-4.477-10-10-10H118c-5.523 0-10 4.478-10 10s4.477 10 10 10h32.146v27h-11.073c-5.523 0-10 4.478-10 10s4.477 10 10 10h91.685a32.55 32.55 0 0 0 14.861 16.07l-36.414 25.885a10 10 0 0 0-4.206 8.15V164c0 5.522 4.477 10 10 10s10-4.478 10-10v-41.735l32.827-23.335 6.377 16.237a10.001 10.001 0 0 0 9.308 6.345h72.976c4.112 0 7.805-2.518 9.308-6.345l6.377-16.237L395 122.265V164c0 5.522 4.477 10 10 10s10-4.478 10-10v-46.896a10 10 0 0 0-4.206-8.15L374.38 83.07A32.55 32.55 0 0 0 389.241 67h91.685c5.523 0 10-4.478 10-10s-4.477-10-10-10h-11.073V20H502c5.523 0 10-4.478 10-10s-4.477-10-10-10zM339.671 101.512h-59.343l-5.704-14.522.36-.256h70.03l.36.256-5.703 14.522zm32.134-47.13c0 6.811-5.541 12.352-12.352 12.352h-98.906c-6.811 0-12.352-5.541-12.352-12.352v-22.03c0-6.811 5.541-12.352 12.352-12.352h98.906c6.811 0 12.352 5.541 12.352 12.352v22.03zM103.69 194.012c-18.813-18.813-49.425-18.813-68.237 0-3.905 3.905-3.906 10.237 0 14.143 3.906 3.904 10.238 3.905 14.142 0 11.016-11.016 28.938-11.016 39.954 0a9.968 9.968 0 0 0 7.07 2.929 9.97 9.97 0 0 0 7.071-2.929c3.905-3.905 3.905-10.237 0-14.143z" fill="#ffffff" opacity="1" data-original="#000000"></path><path d="M130.737 166.965c-16.337-16.337-38.06-25.335-61.165-25.335-23.105 0-44.828 8.998-61.167 25.336-3.905 3.905-3.905 10.237 0 14.143a9.972 9.972 0 0 0 7.072 2.928 9.97 9.97 0 0 0 7.071-2.929c12.561-12.561 29.261-19.479 47.024-19.479s34.463 6.918 47.023 19.479c3.907 3.904 10.238 3.905 14.142 0 3.905-3.905 3.906-10.237 0-14.143zM76.64 221.24a10.059 10.059 0 0 0-7.07-2.931 10.08 10.08 0 0 0-7.07 2.931c-1.86 1.859-2.93 4.439-2.93 7.069s1.07 5.21 2.93 7.07c1.87 1.86 4.44 2.93 7.07 2.93s5.21-1.069 7.07-2.93c1.86-1.86 2.93-4.44 2.93-7.07s-1.07-5.21-2.93-7.069z" fill="#ffffff" opacity="1" data-original="#000000"></path></g></svg>