<svg xmlns="http://www.w3.org/2000/svg" version="1.1" xmlns:xlink="http://www.w3.org/1999/xlink" width="512" height="512" x="0" y="0" viewBox="0 0 512 512" style="enable-background:new 0 0 512 512" xml:space="preserve" class=""><g><path d="M46.026 271h-31c-8.291 0-15 6.709-15 15v211c0 8.291 6.709 15 15 15h31c24.814 0 45-20.186 45-45V316c0-24.814-20.186-45-45-45zM256.026 0c-90.981 0-165 75.019-165 166 0 31.027 8.648 60.859 24.553 86.576 20.151-11.246 42.537-17.465 65.77-17.465 31.9 0 64.132 11.162 91.479 35.889h74.198c10.856 0 20.856 3.223 29.65 8.284 28.026-29.586 45.35-69.41 45.35-113.284 0-90.981-75.019-166-166-166zm.001 121c24.814 0 45 20.186 45 45a44.932 44.932 0 0 1-27.466 41.455c-.829.352-1.694.489-2.534.787V226c0 8.291-6.709 15-15 15s-15-6.709-15-15v-17.717c-7.784-2.62-15.331-7.015-22.104-13.572-5.947-5.757-6.094-15.249-.322-21.211 5.757-5.947 15.278-6.079 21.211-.322 7.28 7.046 15.322 9.492 22.046 6.65a14.992 14.992 0 0 0 9.17-13.828c0-8.276-6.724-15-15-15-24.814 0-45-20.186-45-45-.002-18.853 11.893-35.845 29.603-42.29.13-.048.266-.026.396-.071V45c0-8.291 6.709-15 15-15s15 6.709 15 15v18.465c9.891 3.333 19.336 9.941 27.437 19.596 5.332 6.343 4.512 15.806-1.846 21.123-6.328 5.347-15.82 4.526-21.123-1.846-7.939-9.434-16.89-13.228-24.595-10.444-5.903 2.153-9.873 7.822-9.873 14.106 0 8.276 6.724 15 15 15z" fill="#ffffff" opacity="1" data-original="#000000" class=""></path><path d="M499.727 276.7c-12.301-9-29.401-7.2-39.6 3.9l-81 100.8c-5.7 6-16.5 9.6-22.2 9.6H256.026c-8.401 0-15-6.599-15-15s6.599-15 15-15h91c16.5 0 30-13.5 30-30s-13.5-30-30-30h-79.6c-7.476 0-11.204-4.741-17.1-9.901-9-8.099-19.2-14.099-29.7-18.3-32.509-13.275-70.073-9.258-99.6 11.276v197.924h226c28.2 0 55.201-14.5 72.001-37l86.999-126c9.901-13.2 7.2-32.399-6.299-42.299z" fill="#ffffff" opacity="1" data-original="#000000" class=""></path></g></svg>