<svg id="Layer_1" height="512" viewBox="0 0 64 64" width="512" xmlns="http://www.w3.org/2000/svg" data-name="Layer 1"><path d="m61 45h-14a2 2 0 0 0 -2 2v14a2 2 0 0 0 2 2h14a2 2 0 0 0 2-2v-14a2 2 0 0 0 -2-2zm-9 2h4v4.13l-1.45-1a1 1 0 0 0 -1.1 0l-1.45 1zm-5 14v-14h3v6a1 1 0 0 0 .53.88 1 1 0 0 0 1-.05l2.47-1.63 2.45 1.63a1 1 0 0 0 1.55-.83v-6h3v14z"/><path d="m31 1h2v2h-2z"/><path d="m20 12h2v2h-2z"/><path d="m42 12h2v2h-2z"/><path d="m23.22 4.22h2v2h-2z" transform="matrix(.707 -.707 .707 .707 3.4 18.66)"/><path d="m38.78 19.78h2v2h-2z" transform="matrix(.707 -.707 .707 .707 -3.04 34.21)"/><path d="m23.22 19.78h2v2h-2z" transform="matrix(.707 -.707 .707 .707 -7.6 23.21)"/><path d="m38.78 4.22h2v2h-2z" transform="matrix(.707 -.707 .707 .707 7.96 29.66)"/><path d="m15.29 20.09.7-4.95a1 1 0 0 0 -1.13-1.14l-4.95.71.28 2 1.81-.26a25.76 25.76 0 0 0 -6 16.55 26.12 26.12 0 0 0 .75 6.24l1.95-.48a24 24 0 0 1 4.93-21.21l-.32 2.26z"/><path d="m54.67 35.2-1.71 1 2.58 4.29a1 1 0 0 0 .75.48h.1a1 1 0 0 0 .74-.32l3.39-3.65-1.47-1.36-1.39 1.51a25.93 25.93 0 0 0 -9-24.13l-1.28 1.53a24 24 0 0 1 8.62 18.45 24.85 24.85 0 0 1 -.32 3.87z"/><path d="m24 13a8 8 0 0 0 4 6.92v3.08a4 4 0 0 0 8 0v-3.08a8 8 0 1 0 -12-6.92zm10 10a2 2 0 0 1 -4 0v-1h4zm-2-16a6 6 0 0 1 2.57 11.41 1 1 0 0 0 -.57.91v.68h-4v-.68a1 1 0 0 0 -.57-.91 6 6 0 0 1 2.57-11.41z"/><path d="m41.36 57.26-.72-1.86a24.08 24.08 0 0 1 -12.53 1.26l1.79-.93-.9-1.73-4.43 2.31a1 1 0 0 0 -.57.69 1 1 0 0 0 .27.86l3.46 3.61 1.44-1.39-1.36-1.42a26.49 26.49 0 0 0 4.19.34 25.69 25.69 0 0 0 9.36-1.74z"/><path d="m11 49a1.5 1.5 0 0 1 0 3 1 1 0 0 0 -1 1v2.5h2v-1.65a3.5 3.5 0 1 0 -4.5-3.35h2a1.5 1.5 0 0 1 1.5-1.5z"/><path d="m10 57h2v2h-2z"/><path d="m11 63a10 10 0 1 0 -10-10 10 10 0 0 0 10 10zm0-18a8 8 0 1 1 -8 8 8 8 0 0 1 8-8z"/></svg>