<svg id="Layer_1" enable-background="new 0 0 66 66" viewBox="0 0 66 66" xmlns="http://www.w3.org/2000/svg"><g><g><g><g><path d="m28.37 21.43c-.34 0-.67-.19-.83-.52-.22-.46-.03-1.01.42-1.24l27.56-13.47c.46-.22 1.01-.03 1.24.42.22.46.03 1.01-.42 1.24l-27.56 13.47c-.13.07-.27.1-.41.1z" fill="rgb(0,0,0)"/></g></g><g><g><path d="m56.47 11.43c-.04 0-.08 0-.12-.01l-6.03-.78c-.31-.04-.58-.23-.71-.51-.14-.28-.12-.61.04-.88l3.1-5.24c.26-.44.83-.59 1.27-.33s.59.83.33 1.27l-2.38 4.03 4.64.6c.51.07.86.53.8 1.04-.09.47-.48.81-.94.81z" fill="rgb(0,0,0)"/></g></g></g><g><g><path d="m33.13 40.87c-.83 0-1.51.68-1.51 1.51s.68 1.51 1.51 1.51 1.51-.68 1.51-1.51-.68-1.51-1.51-1.51z" fill="rgb(0,0,0)"/></g><g><path d="m43.23 16.33-3.4 1.67c.19.8.28 1.65.28 2.51 0 6.48-5.27 11.73-11.74 11.73s-11.73-5.26-11.73-11.73 5.27-11.73 11.73-11.73c3.63 0 6.88 1.65 9.02 4.24l3.4-1.67c-2.81-3.8-7.33-6.27-12.42-6.27-8.5 0-15.43 6.92-15.43 15.43s6.93 15.43 15.43 15.43c8.51 0 15.44-6.92 15.44-15.43 0-1.46-.2-2.86-.58-4.18z" fill="rgb(0,0,0)"/></g><g><circle cx="33.13" cy="57.85" fill="rgb(0,0,0)" r="1.51"/></g><g><circle cx="41.79" cy="57.85" fill="rgb(0,0,0)" r="1.51"/></g><g><path d="m14.12 48.81h28.5v2.6h-28.5z" fill="rgb(0,0,0)"/></g><g><path d="m13.2 53.26h-3.67c-.51 0-.93.41-.93.93v7.33c0 .51.41.93.93.93h37.68c.51 0 .93-.41.93-.93v-7.33c0-.51-.41-.93-.93-.93h-3.66zm.24 6.24c0 .51-.41.93-.93.93s-.93-.41-.93-.93v-3.3c0-.51.41-.93.93-.93s.93.41.93.93zm3.75 0c0 .51-.41.93-.93.93-.51 0-.93-.41-.93-.93v-3.3c0-.51.41-.93.93-.93.51 0 .93.41.93.93zm3.75 0c0 .51-.41.93-.93.93-.51 0-.93-.41-.93-.93v-3.3c0-.51.41-.93.93-.93.51 0 .93.41.93.93zm3.75 0c0 .51-.41.93-.93.93-.51 0-.93-.41-.93-.93v-3.3c0-.51.41-.93.93-.93.51 0 .93.41.93.93zm8.44 1.7c-1.85 0-3.36-1.51-3.36-3.36s1.51-3.36 3.36-3.36 3.36 1.51 3.36 3.36-1.51 3.36-3.36 3.36zm12.02-3.35c0 1.85-1.51 3.36-3.36 3.36s-3.36-1.51-3.36-3.36 1.51-3.36 3.36-3.36 3.36 1.51 3.36 3.36z" fill="rgb(0,0,0)"/></g><g><path d="m47.21 37.79h-37.68c-.51 0-.93.41-.93.93v7.32c0 .51.41.93.93.93h3.66 30.35 3.66c.51 0 .93-.41.93-.93v-7.32c0-.52-.41-.93-.92-.93zm-33.77 6.24c0 .51-.41.93-.93.93s-.93-.41-.93-.93v-3.3c0-.51.41-.93.93-.93s.93.41.93.93zm3.75 0c0 .51-.41.93-.93.93-.51 0-.93-.41-.93-.93v-3.3c0-.51.41-.93.93-.93.51 0 .93.41.93.93zm3.75 0c0 .51-.41.93-.93.93-.51 0-.93-.41-.93-.93v-3.3c0-.51.41-.93.93-.93.51 0 .93.41.93.93zm3.75 0c0 .51-.41.93-.93.93-.51 0-.93-.41-.93-.93v-3.3c0-.51.41-.93.93-.93.51 0 .93.41.93.93zm8.44 1.7c-1.85 0-3.36-1.51-3.36-3.36s1.51-3.36 3.36-3.36 3.36 1.51 3.36 3.36-1.51 3.36-3.36 3.36zm8.66 0c-1.85 0-3.36-1.51-3.36-3.36s1.51-3.36 3.36-3.36 3.36 1.51 3.36 3.36-1.51 3.36-3.36 3.36z" fill="rgb(0,0,0)"/></g><g><path d="m38.12 18.82-3.56 1.75c-.04 3.38-2.8 6.11-6.19 6.11-3.41 0-6.18-2.77-6.18-6.18s2.78-6.18 6.18-6.18c1.4 0 2.7.47 3.74 1.27l3.56-1.74c-1.8-1.98-4.41-3.23-7.3-3.23-5.45 0-9.88 4.43-9.88 9.88s4.43 9.88 9.88 9.88 9.89-4.43 9.89-9.88c0-.58-.05-1.13-.14-1.68z" fill="rgb(0,0,0)"/></g><g><path d="m41.79 40.87c-.83 0-1.51.68-1.51 1.51s.68 1.51 1.51 1.51 1.51-.68 1.51-1.51-.68-1.51-1.51-1.51z" fill="rgb(0,0,0)"/></g><g><path d="m28.37 16.17c-2.39 0-4.33 1.94-4.33 4.33s1.94 4.33 4.33 4.33 4.33-1.94 4.33-4.33-1.94-4.33-4.33-4.33z" fill="rgb(0,0,0)"/></g></g></g></svg>