<svg xmlns="http://www.w3.org/2000/svg" version="1.1" xmlns:xlink="http://www.w3.org/1999/xlink" width="512" height="512" x="0" y="0" viewBox="0 0 256 256" style="enable-background:new 0 0 512 512" xml:space="preserve" class=""><g><path fill="#ffffff" d="M204.52 148.08h-92.48c-6.41 0-11.655 5.245-11.655 11.655v66.305c0 6.41 5.244 11.656 11.655 11.656h92.48c6.41 0 11.655-5.245 11.655-11.656v-66.305c0-6.41-5.245-11.655-11.655-11.655z" opacity="1" data-original="#edf4fc"></path><path fill="#ffffff" d="M220.499 237.696H96.06a4.15 4.15 0 0 0-4.15 4.149c0 6.41 5.246 11.655 11.656 11.655h109.426c6.41 0 11.655-5.245 11.655-11.655a4.15 4.15 0 0 0-4.15-4.15z" opacity="1" data-original="#c7d7e5" class=""></path><path fill="#ffffff" d="M91.912 241.845a4.15 4.15 0 0 1 4.149-4.15h15.979c-6.41 0-11.655-5.244-11.655-11.655v-52.232l-.19.204a4.519 4.519 0 0 1-6.366.25l-5.591-5.167a4.519 4.519 0 0 1-.251-6.367l13.087-14.16a12.855 12.855 0 0 1-2.712-7.89v-6.061a36.902 36.902 0 0 1-17.16 4.226 36.9 36.9 0 0 1-17.16-4.226v6.062c0 2.913-.99 5.672-2.712 7.89l13.087 14.16a4.519 4.519 0 0 1-.251 6.366l-5.591 5.167a4.519 4.519 0 0 1-6.367-.25l-15.85-17.15a81.845 81.845 0 0 1-8.479 2.604l-20.166 5.076a14.7 14.7 0 0 0-11.088 13.437l-4.118 71.015c-.131 2.342 1.733 4.506 4.08 4.506h96.98c-6.41 0-11.655-5.245-11.655-11.655z" opacity="1" data-original="#5290db" class=""></path><path fill="#ffffff" d="M171.205 188.224h-25.85c-3.079 0-5.598 2.52-5.598 5.598v3.355c0 3.078 2.52 5.597 5.598 5.597h25.85c3.078 0 5.597-2.519 5.597-5.597v-3.355c0-3.079-2.519-5.598-5.597-5.598z" opacity="1" data-original="#c7d7e5" class=""></path><path fill="#ffffff" d="M113.129 57.044c-2.436-2.554-6.396-2.79-9.172-.61-4.39 3.446-11.986 7.705-22.714 7.705-10.754 0-18.39-4.28-22.798-7.73-2.775-2.171-6.727-1.928-9.158.621l-.012.014a19.259 19.259 0 0 0-5.321 13.29v31.261c0 20.487 16.761 37.248 37.248 37.248 20.486 0 37.248-16.761 37.248-37.248v-31.26c0-4.95-1.905-9.71-5.321-13.291z" opacity="1" data-original="#f9d0b4" class=""></path><path fill="#ffffff" d="M120.84 73.207c-.813 0-1.61.069-2.39.19v28.198c0 .84-.038 1.672-.094 2.498.811.13 1.637.217 2.484.217 8.59 0 15.552-6.963 15.552-15.551s-6.963-15.552-15.552-15.552zM43.954 101.595V73.397c-.78-.121-1.577-.19-2.39-.19-8.59 0-15.552 6.963-15.552 15.552s6.963 15.551 15.551 15.551c.848 0 1.674-.086 2.485-.217a37.217 37.217 0 0 1-.094-2.498z" opacity="1" data-original="#f9d0b4" class=""></path><path fill="#ffffff" d="M118.311 41.434c-1.248 0-2.329-.962-2.346-2.21-.285-20.755-23.987-24.654-47.591-20.578-20.012 3.456-34.639 20.81-34.639 41.118v15.573a15.456 15.456 0 0 1 7.829-2.13c.813 0 1.61.069 2.39.19v-3.062c0-4.95 1.905-9.71 5.32-13.291l.014-.013c2.43-2.55 6.383-2.793 9.157-.622 4.408 3.45 12.044 7.73 22.798 7.73 10.729 0 18.324-4.26 22.714-7.705 2.776-2.18 6.736-1.944 9.172.61a19.259 19.259 0 0 1 5.321 13.29v3.063c.78-.121 1.577-.19 2.39-.19 2.893 0 5.591.804 7.911 2.18V62.6c0-18.586-6.711-21.167-10.44-21.167z" opacity="1" data-original="#5b5d60" class=""></path><path fill="#ffffff" d="M241.357 39.831h-5.764a2.557 2.557 0 0 1-2.476-1.873 34.808 34.808 0 0 0-3.422-8.259c-.575-1-.394-2.263.422-3.079l4.078-4.078a2.573 2.573 0 0 0 0-3.639l-6.668-6.668a2.573 2.573 0 0 0-3.64 0l-4.077 4.077a2.559 2.559 0 0 1-3.08.423 34.803 34.803 0 0 0-8.258-3.423 2.557 2.557 0 0 1-1.873-2.475V5.073a2.573 2.573 0 0 0-2.574-2.573h-9.43a2.573 2.573 0 0 0-2.573 2.573v5.764a2.557 2.557 0 0 1-1.874 2.475 34.804 34.804 0 0 0-8.258 3.423c-1 .575-2.264.393-3.08-.422l-4.078-4.078a2.573 2.573 0 0 0-3.638 0l-6.669 6.668a2.573 2.573 0 0 0 0 3.639l4.078 4.078a2.56 2.56 0 0 1 .423 3.08 34.804 34.804 0 0 0-3.423 8.258 2.557 2.557 0 0 1-2.475 1.873h-5.764a2.573 2.573 0 0 0-2.573 2.573v9.431a2.573 2.573 0 0 0 2.573 2.573h5.764c1.151 0 2.174.762 2.475 1.874a34.808 34.808 0 0 0 3.423 8.258c.574 1 .393 2.264-.423 3.08l-4.078 4.077a2.573 2.573 0 0 0 0 3.64l6.669 6.668a2.573 2.573 0 0 0 3.638 0l4.078-4.078a2.56 2.56 0 0 1 3.08-.423 34.802 34.802 0 0 0 8.258 3.423 2.557 2.557 0 0 1 1.874 2.475v5.764a2.573 2.573 0 0 0 2.573 2.573h9.43a2.573 2.573 0 0 0 2.574-2.573v-5.764c0-1.151.762-2.174 1.873-2.475a34.804 34.804 0 0 0 8.258-3.423c1-.574 2.264-.393 3.08.423l4.078 4.078a2.573 2.573 0 0 0 3.639 0l6.668-6.669a2.573 2.573 0 0 0 0-3.639l-4.078-4.078a2.559 2.559 0 0 1-.422-3.08 34.804 34.804 0 0 0 3.422-8.257 2.557 2.557 0 0 1 2.476-1.874h5.764a2.573 2.573 0 0 0 2.573-2.573v-9.43a2.573 2.573 0 0 0-2.573-2.574z" opacity="1" data-original="#5290db" class=""></path><circle cx="199.31" cy="47.12" r="21.132" fill="#ffffff" opacity="1" data-original="#70d6f9" class=""></circle><path fill="#ffffff" d="m46.357 156.861 15.851 17.15a4.519 4.519 0 0 0 6.367.251l5.59-5.167a4.519 4.519 0 0 0 .252-6.367l-13.087-14.16a12.843 12.843 0 0 1-4.466 3.652c-3.527 1.74-6.792 3.27-10.507 4.641zM100.196 174.012l.189-.204v-14.073c0-3.305 1.4-6.293 3.63-8.42a12.915 12.915 0 0 1-2.941-2.747l-13.087 14.16a4.519 4.519 0 0 0 .25 6.367l5.592 5.168a4.519 4.519 0 0 0 6.367-.251z" opacity="1" data-original="#6cadef" class=""></path><path fill="#ffffff" d="M74.417 162.728a4.46 4.46 0 0 1 1.116 2.28h11.338a4.461 4.461 0 0 1 1.116-2.28l13.089-14.162a12.836 12.836 0 0 1-2.714-7.887v-6.062a36.902 36.902 0 0 1-17.16 4.226 36.9 36.9 0 0 1-17.16-4.226v6.062c0 2.913-.99 5.672-2.712 7.89z" opacity="1" data-original="#f9d0b4" class=""></path><path fill="#ffffff" d="M88.238 169.095a4.504 4.504 0 0 1-1.367-4.087H75.533a4.505 4.505 0 0 1-1.367 4.087l-3.42 3.162 3.67 8.821h13.571l3.672-8.821z" opacity="1" data-original="#f98fa6" class=""></path><path fill="#ffffff" d="M87.987 181.078h-13.57L71.189 253.5h20.025z" opacity="1" data-original="#fc657e" class=""></path><path d="M81.744 118.257c-4.78 0-9.27-1.95-12.008-5.219a2.5 2.5 0 0 1 3.832-3.211c1.8 2.148 4.857 3.43 8.176 3.43s6.375-1.282 8.176-3.43a2.5 2.5 0 1 1 3.832 3.212c-2.74 3.268-7.229 5.218-12.008 5.218z" fill="#fffefe" opacity="1" data-original="#000000" class=""></path><circle cx="98.548" cy="90.478" r="5.005" fill="#fffefe" opacity="1" data-original="#000000" class=""></circle><circle cx="64.939" cy="90.478" r="5.005" fill="#fffefe" opacity="1" data-original="#000000" class=""></circle><path d="M32.335 255.059a2.5 2.5 0 0 1-2.5-2.5v-62.133a2.5 2.5 0 1 1 5 0v62.133a2.5 2.5 0 0 1-2.5 2.5zM204.52 240.196h-92.48c-7.806 0-14.155-6.35-14.155-14.156v-66.305c0-7.805 6.35-14.155 14.154-14.155h92.48c7.806 0 14.156 6.35 14.156 14.155v66.305c0 7.806-6.35 14.156-14.156 14.156zm-92.48-89.616c-5.048 0-9.155 4.107-9.155 9.155v66.306c0 5.048 4.107 9.155 9.155 9.155h92.48c5.047 0 9.155-4.107 9.155-9.155v-66.306c0-5.048-4.108-9.155-9.155-9.155z" fill="#fffefe" opacity="1" data-original="#000000" class=""></path><path d="M212.992 256H103.567c-7.805 0-14.155-6.35-14.155-14.155a6.657 6.657 0 0 1 6.649-6.65h124.438a6.656 6.656 0 0 1 6.648 6.65c0 7.805-6.35 14.155-14.155 14.155zM96.061 240.196c-.91 0-1.65.74-1.65 1.649 0 5.048 4.107 9.155 9.156 9.155h109.425c5.048 0 9.155-4.107 9.155-9.155 0-.91-.739-1.65-1.648-1.65zM199.31 70.752c-6.726 0-11.798-10.16-11.798-23.632s5.072-23.633 11.798-23.633 11.798 10.16 11.798 23.633-5.072 23.632-11.798 23.632zm0-42.265c-2.772 0-6.798 7.259-6.798 18.633s4.026 18.632 6.798 18.632c2.772 0 6.798-7.258 6.798-18.632s-4.026-18.633-6.798-18.633z" fill="#fffefe" opacity="1" data-original="#000000" class=""></path><path d="M219.597 49.62h-40.574a2.5 2.5 0 1 1 0-5h40.574a2.5 2.5 0 1 1 0 5zM182.683 123.935h-19.325a2.5 2.5 0 1 1 0-5h16.825v-14.24a2.5 2.5 0 1 1 5 0v16.74a2.5 2.5 0 0 1-2.5 2.5zM235.262 123.935h-19.325a2.5 2.5 0 0 1-2.5-2.5v-16.74a2.5 2.5 0 1 1 5 0v14.24h16.825a2.5 2.5 0 1 1 0 5zM199.31 130.195a2.5 2.5 0 0 1-2.5-2.5v-23a2.5 2.5 0 1 1 5 0v23a2.5 2.5 0 0 1-2.5 2.5z" fill="#fffefe" opacity="1" data-original="#000000" class=""></path><path fill="#ffffff" d="M160.013 98.2c-3.1-.6-5.6-3-6.2-6.1 0-.1-.3-.1-.3 0-.6 3.1-3.1 5.5-6.2 6.1-.1 0-.1.2 0 .3 3.1.6 5.6 3 6.2 6.1 0 .1.3.1.3 0 .6-3.1 3.1-5.5 6.2-6.1.1-.1.1-.3 0-.3z" opacity="1" data-original="#fc657e" class=""></path><path fill="#ffffff" d="M241.8 156.5h2.3v2.3c0 1.8 1.4 3.2 3.2 3.2 1.7 0 3.2-1.4 3.2-3.1v-2.4h2.3c1.8 0 3.2-1.4 3.2-3.2 0-1.7-1.4-3.2-3.1-3.2h-2.4v-2.3c0-1.8-1.4-3.2-3.2-3.2-1.7 0-3.2 1.4-3.2 3.1v2.4h-2.3c-1.8 0-3.2 1.4-3.2 3.2-.1 1.7 1.3 3.2 3.2 3.2-.1 0-.1 0 0 0z" opacity="1" data-original="#70d6f9" class=""></path><circle cx="238.413" cy="211.9" r="3.4" fill="#ffffff" opacity="1" data-original="#f5c84c" class=""></circle><circle cx="122.413" cy="3.4" r="3.4" fill="#ffffff" opacity="1" data-original="#87d147" class=""></circle><path fill="#ffffff" d="M.15 57.2c4.5-.8 8-4.3 8.9-8.7 0-.2.4-.2.4 0 .9 4.4 4.4 7.9 8.9 8.7.2 0 .2.3 0 .4-4.5.8-8 4.3-8.9 8.7 0 .2-.4.2-.4 0-.9-4.4-4.4-7.9-8.9-8.7-.2-.1-.2-.4 0-.4z" opacity="1" data-original="#f5c84c" class=""></path><path d="M103.567 256H6.587c-1.773 0-3.44-.732-4.697-2.061a6.88 6.88 0 0 1-1.88-5.085l4.119-71.02c.42-7.55 5.634-13.869 12.973-15.716l20.167-5.076a79.56 79.56 0 0 0 8.222-2.526 2.499 2.499 0 0 1 2.702.648l15.85 17.15c.361.39.856.617 1.395.638.542.02 1.05-.165 1.44-.526l5.591-5.167c.39-.36.616-.855.637-1.394a1.99 1.99 0 0 0-.525-1.44l-13.088-14.16a2.5 2.5 0 0 1-.138-3.23 10.413 10.413 0 0 0 2.186-6.356v-6.062a2.5 2.5 0 0 1 3.66-2.215c4.996 2.615 10.38 3.941 16 3.941s11.005-1.326 16.002-3.941a2.498 2.498 0 0 1 3.66 2.215v6.062c0 2.283.776 4.54 2.186 6.356a2.5 2.5 0 0 1-.139 3.23l-13.087 14.16c-.36.39-.547.901-.526 1.44a1.99 1.99 0 0 0 .637 1.394l5.592 5.167c.39.361.914.548 1.44.526a1.989 1.989 0 0 0 1.394-.637l.19-.206a2.501 2.501 0 0 1 4.335 1.698v52.233c0 5.049 4.106 9.156 9.154 9.156a2.5 2.5 0 1 1 0 5H96.061c-.91 0-1.65.74-1.65 1.649 0 5.048 4.108 9.155 9.156 9.155a2.5 2.5 0 1 1 0 5zm-57.925-96.229a86.267 86.267 0 0 1-7.152 2.12l-20.167 5.075a12.146 12.146 0 0 0-9.202 11.152l-4.119 71.02c-.026.48.168.993.52 1.365.175.186.547.497 1.064.497H92.78a14.092 14.092 0 0 1-3.367-9.155 6.657 6.657 0 0 1 6.649-6.65h5.19a14.092 14.092 0 0 1-3.366-9.154v-48.158a7.178 7.178 0 0 1-.723.065 6.96 6.96 0 0 1-5.03-1.85l-5.591-5.167c-1.37-1.267-2.166-2.996-2.24-4.87s.584-3.66 1.85-5.03l11.753-12.716a15.424 15.424 0 0 1-2.042-7.636v-2.165c-9.311 3.717-20.009 3.718-29.32 0v2.165c0 2.673-.715 5.318-2.042 7.636l11.752 12.717c1.267 1.37 1.924 3.156 1.85 5.03s-.869 3.602-2.24 4.869l-5.59 5.167a6.918 6.918 0 0 1-5.03 1.85 6.955 6.955 0 0 1-4.87-2.24zM171.204 205.274h-25.85c-4.464 0-8.096-3.632-8.096-8.098v-3.354c0-4.464 3.632-8.097 8.096-8.097h25.85c4.465 0 8.098 3.632 8.098 8.097v3.354c0 4.466-3.633 8.098-8.098 8.098zm-25.85-14.55a3.101 3.101 0 0 0-3.096 3.098v3.354a3.101 3.101 0 0 0 3.096 3.098h25.85a3.101 3.101 0 0 0 3.098-3.098v-3.354a3.101 3.101 0 0 0-3.098-3.097z" fill="#fffefe" opacity="1" data-original="#000000" class=""></path><path d="M81.202 141.343c-21.917 0-39.748-17.83-39.748-39.748v-31.26c0-5.618 2.135-10.95 6.012-15.016 3.328-3.49 8.706-3.864 12.519-.879 4.197 3.284 11.29 7.199 21.258 7.199 9.946 0 17.002-3.9 21.17-7.172 3.819-2.998 9.204-2.631 12.525.852a21.666 21.666 0 0 1 6.012 15.016v31.26c0 21.917-17.83 39.748-39.748 39.748zM54.19 57.433a4.257 4.257 0 0 0-3.093 1.323 16.7 16.7 0 0 0-4.643 11.578v31.261c0 19.16 15.588 34.748 34.748 34.748 19.16 0 34.748-15.588 34.748-34.748v-31.26a16.69 16.69 0 0 0-4.63-11.566c-1.536-1.61-4.036-1.768-5.82-.369-4.788 3.759-12.883 8.239-24.257 8.239-11.392 0-19.524-4.493-24.34-8.261a4.398 4.398 0 0 0-2.713-.945z" fill="#fffefe" opacity="1" data-original="#000000" class=""></path><path d="M120.84 106.81c-.899 0-1.841-.081-2.88-.248a2.5 2.5 0 0 1-2.098-2.635c.06-.902.088-1.643.088-2.332V73.397a2.5 2.5 0 0 1 2.116-2.47c.938-.146 1.871-.22 2.774-.22 9.954 0 18.051 8.098 18.051 18.052s-8.097 18.051-18.05 18.051zm.11-31.102v26.102c7.146-.06 12.942-5.891 12.942-13.051s-5.795-12.992-12.942-13.051zM41.563 106.81c-9.953 0-18.05-8.098-18.05-18.051s8.097-18.052 18.05-18.052c.903 0 1.837.074 2.774.22a2.5 2.5 0 0 1 2.117 2.47v28.198c0 .692.028 1.432.088 2.33a2.5 2.5 0 0 1-2.096 2.636c-1.04.168-1.982.25-2.883.25zm-.11-31.102c-7.146.059-12.94 5.89-12.94 13.05s5.795 12.993 12.942 13.052l-.001-.215z" fill="#fffefe" opacity="1" data-original="#000000" class=""></path><path d="M128.751 77.887c-.441 0-.882-.117-1.275-.35a13.025 13.025 0 0 0-6.636-1.83c-.647 0-1.321.054-2.006.16a2.5 2.5 0 0 1-2.884-2.47v-3.062a16.69 16.69 0 0 0-4.63-11.566c-1.536-1.61-4.036-1.768-5.819-.369-4.788 3.759-12.884 8.239-24.258 8.239-11.392 0-19.524-4.493-24.34-8.261-1.777-1.391-4.273-1.228-5.806.378a16.7 16.7 0 0 0-4.643 11.579v3.062a2.5 2.5 0 0 1-2.884 2.47c-.685-.106-1.36-.16-2.006-.16a13.03 13.03 0 0 0-6.567 1.788 2.5 2.5 0 0 1-3.762-2.159V59.764A44.14 44.14 0 0 1 67.95 16.183c18.726-3.236 34.32-1.06 42.778 5.965 4.976 4.132 7.577 9.779 7.734 16.787 4.848.064 12.79 3.285 12.79 23.666v12.786a2.501 2.501 0 0 1-2.5 2.5zm-7.8-7.18c1.801.011 3.588.296 5.3.839V62.6c0-11.863-2.894-18.667-7.94-18.667-2.637 0-4.81-2.097-4.846-4.675-.076-5.597-2.072-10.06-5.932-13.265-7.332-6.09-21.45-7.87-38.734-4.885a39.152 39.152 0 0 0-32.564 38.655V71.52c1.687-.525 3.447-.8 5.219-.811v-.373c0-5.618 2.135-10.95 6.012-15.016 3.329-3.49 8.705-3.864 12.52-.879 4.196 3.284 11.29 7.199 21.257 7.199 9.946 0 17.002-3.9 21.17-7.172 3.819-2.998 9.204-2.631 12.525.852a21.666 21.666 0 0 1 6.012 15.016zm-2.486-31.517h.01zM204.025 94.24h-9.43a5.079 5.079 0 0 1-5.074-5.074v-5.764c-3.115-.897-6.093-2.13-8.876-3.73l-4.144 4.1a5.08 5.08 0 0 1-7.175 0l-6.669-6.668a5.078 5.078 0 0 1 0-7.174l4.078-4.078c-1.575-2.848-2.81-5.826-3.645-8.918l-5.826-.026a5.079 5.079 0 0 1-5.074-5.073v-9.43a5.079 5.079 0 0 1 5.074-5.074h5.763c.899-3.119 2.133-6.097 3.73-8.877l-4.1-4.144a5.078 5.078 0 0 1 0-7.175l6.67-6.669a5.078 5.078 0 0 1 7.173 0l4.078 4.079c2.85-1.577 5.828-2.811 8.918-3.646l.025-5.826A5.079 5.079 0 0 1 194.595 0h9.43a5.079 5.079 0 0 1 5.074 5.073v5.764c3.115.897 6.093 2.131 8.877 3.73l4.144-4.1a5.077 5.077 0 0 1 7.174 0l6.669 6.668a5.078 5.078 0 0 1 0 7.175l-4.078 4.078c1.575 2.847 2.81 5.825 3.645 8.917l5.826.026a5.079 5.079 0 0 1 5.074 5.073v9.431a5.079 5.079 0 0 1-5.074 5.073h-5.763c-.899 3.118-2.133 6.096-3.73 8.878l4.1 4.144a5.04 5.04 0 0 1 1.486 3.587 5.04 5.04 0 0 1-1.486 3.587l-6.67 6.668a5.077 5.077 0 0 1-7.173 0l-4.078-4.078c-2.85 1.577-5.828 2.811-8.918 3.646l-.025 5.826a5.079 5.079 0 0 1-5.074 5.073zm-23.39-19.57c.858 0 1.721.22 2.5.667a32.304 32.304 0 0 0 7.666 3.176c2.191.593 3.72 2.604 3.72 4.89v5.763c0 .04.034.073.074.073h9.43c.04 0 .073-.032.073-.073v-5.764c0-2.285 1.53-4.296 3.72-4.888a32.317 32.317 0 0 0 7.667-3.177 5.066 5.066 0 0 1 6.093.823l4.077 4.077c.03.029.074.029.104 0l6.669-6.669c.024-.024.024-.079 0-.103l-4.079-4.078a5.065 5.065 0 0 1-.823-6.092 32.323 32.323 0 0 0 3.178-7.665c.593-2.192 2.602-3.722 4.889-3.722h5.763c.04 0 .073-.032.073-.073v-9.43a.073.073 0 0 0-.073-.074h-5.763c-2.287 0-4.296-1.53-4.89-3.72a32.31 32.31 0 0 0-3.177-7.666 5.066 5.066 0 0 1 .823-6.092l4.079-4.078a.074.074 0 0 0 0-.104l-6.67-6.668a.073.073 0 0 0-.103 0l-4.078 4.077a5.062 5.062 0 0 1-6.093.823 32.304 32.304 0 0 0-7.665-3.177c-2.191-.593-3.72-2.603-3.72-4.889V5.073a.073.073 0 0 0-.074-.073h-9.43a.073.073 0 0 0-.074.073v5.764c0 2.286-1.529 4.296-3.72 4.889a32.317 32.317 0 0 0-7.666 3.177 5.065 5.065 0 0 1-6.093-.823l-4.077-4.078a.074.074 0 0 0-.104 0l-6.669 6.669a.074.074 0 0 0 0 .103l4.078 4.078a5.065 5.065 0 0 1 .824 6.092 32.339 32.339 0 0 0-3.178 7.666c-.593 2.191-2.603 3.721-4.889 3.721h-5.763a.073.073 0 0 0-.074.073v9.43c0 .041.034.074.074.074h5.763c2.286 0 4.296 1.53 4.889 3.72a32.31 32.31 0 0 0 3.178 7.666 5.066 5.066 0 0 1-.824 6.093l-4.078 4.078a.074.074 0 0 0 0 .104l6.67 6.668c.029.029.073.029.103 0l4.078-4.078a5.078 5.078 0 0 1 3.593-1.488z" fill="#fffefe" opacity="1" data-original="#000000" class=""></path><path d="M199.31 70.752c-13.03 0-23.632-10.602-23.632-23.632s10.601-23.633 23.632-23.633c13.03 0 23.632 10.602 23.632 23.633s-10.601 23.632-23.632 23.632zm0-42.265c-10.274 0-18.632 8.359-18.632 18.633s8.358 18.632 18.632 18.632c10.274 0 18.632-8.358 18.632-18.632s-8.358-18.633-18.632-18.633zM65.525 177.954a6.955 6.955 0 0 1-5.153-2.245l-15.851-17.151a2.5 2.5 0 0 1 .97-4.042c3.514-1.298 6.646-2.753 10.268-4.539a10.271 10.271 0 0 0 3.596-2.942 2.5 2.5 0 0 1 1.867-.964 2.474 2.474 0 0 1 1.944.8l13.087 14.16c1.266 1.37 1.923 3.157 1.85 5.03s-.87 3.603-2.24 4.87l-5.591 5.167a6.95 6.95 0 0 1-4.747 1.856zm-14.855-20.11 13.374 14.47c.36.39.855.617 1.394.638.542.02 1.05-.165 1.44-.526l5.591-5.167c.39-.36.616-.855.637-1.394a1.99 1.99 0 0 0-.525-1.44l-11.276-12.2a15.32 15.32 0 0 1-3.335 2.237c-2.564 1.264-4.897 2.371-7.3 3.382zM96.878 177.954a6.949 6.949 0 0 1-4.746-1.856l-5.591-5.167c-1.37-1.267-2.166-2.996-2.24-4.87s.584-3.66 1.85-5.03l13.087-14.16a2.501 2.501 0 0 1 3.81.164 10.38 10.38 0 0 0 2.373 2.213 2.5 2.5 0 0 1 .32 3.876c-1.842 1.757-2.856 4.104-2.856 6.61v14.074a2.5 2.5 0 0 1-.666 1.698l-.187.202a6.955 6.955 0 0 1-5.154 2.246zm1.931-23.251-8.986 9.722c-.36.39-.547.901-.526 1.44a1.99 1.99 0 0 0 .638 1.394l5.59 5.167c.391.36.91.545 1.44.526.33-.013.644-.102.92-.26v-12.957c0-1.75.317-3.447.924-5.032z" fill="#fffefe" opacity="1" data-original="#000000" class=""></path><path d="M86.87 167.508H75.534a2.5 2.5 0 0 1-2.463-2.073 1.944 1.944 0 0 0-.489-1.009l-13.087-14.16a2.5 2.5 0 0 1-.14-3.231 10.413 10.413 0 0 0 2.187-6.356v-6.062a2.5 2.5 0 0 1 3.66-2.215c4.996 2.615 10.38 3.941 16 3.941s11.005-1.326 16.002-3.941a2.498 2.498 0 0 1 3.66 2.215v6.062c0 2.284.776 4.54 2.186 6.352a2.5 2.5 0 0 1-.137 3.232l-13.089 14.162a1.948 1.948 0 0 0-.49 1.01 2.5 2.5 0 0 1-2.462 2.073zm-9.576-5h7.815a6.88 6.88 0 0 1 1.043-1.477l11.752-12.717a15.415 15.415 0 0 1-2.042-7.635v-2.165c-9.311 3.717-20.01 3.718-29.32 0v2.165c0 2.672-.715 5.318-2.042 7.636l11.752 12.716c.413.446.762.942 1.042 1.477z" fill="#fffefe" opacity="1" data-original="#000000" class=""></path><path d="M87.987 183.578h-13.57a2.5 2.5 0 0 1-2.309-1.54l-3.671-8.82a2.5 2.5 0 0 1 .611-2.797l3.421-3.162c.495-.457.72-1.14.6-1.824a2.502 2.502 0 0 1 2.464-2.927h11.338a2.5 2.5 0 0 1 2.463 2.927 2.004 2.004 0 0 0 .6 1.824l3.422 3.162a2.5 2.5 0 0 1 .61 2.796l-3.67 8.821a2.5 2.5 0 0 1-2.309 1.54zm-11.903-5H86.32l2.36-5.67-2.139-1.977a6.954 6.954 0 0 1-2.03-3.423h-6.619a6.954 6.954 0 0 1-2.029 3.423l-2.139 1.977z" fill="#fffefe" opacity="1" data-original="#000000" class=""></path><path d="M91.214 256H71.19a2.5 2.5 0 0 1-2.498-2.611l3.227-72.422a2.5 2.5 0 0 1 2.498-2.389h13.57a2.5 2.5 0 0 1 2.498 2.389l3.227 72.422A2.5 2.5 0 0 1 91.214 256zm-17.41-5H88.6l-3.005-67.422h-8.788z" fill="#fffefe" opacity="1" data-original="#000000" class=""></path></g></svg>