<svg xmlns="http://www.w3.org/2000/svg" version="1.1" xmlns:xlink="http://www.w3.org/1999/xlink" width="512" height="512" x="0" y="0" viewBox="0 0 32 32" style="enable-background:new 0 0 512 512" xml:space="preserve"><g><path fill="#ffffff" fill-rule="evenodd" d="M1 3.5A2.5 2.5 0 0 1 3.5 1h25A2.5 2.5 0 0 1 31 3.5V23c0 1.291-.999 2.34-2.24 2.483-.065.105-.131.21-.198.312-1.042 1.604-2.268 3.02-3.013 3.83a1.42 1.42 0 0 1-2.098 0c-.745-.81-1.97-2.226-3.013-3.83a21.26 21.26 0 0 1-.188-.295h-.834a9.045 9.045 0 0 0-.08.635c-.052.604-.04 1.252.129 1.681.158.4.537.81 1.017 1.187.469.369.98.664 1.328.846.297.156.356.47.306.681a.604.604 0 0 1-.588.47H10.472a.605.605 0 0 1-.588-.47.607.607 0 0 1 .306-.68c.348-.183.86-.478 1.328-.847.48-.377.86-.788 1.017-1.187.17-.428.181-1.077.128-1.68a9.045 9.045 0 0 0-.079-.636H3.5A2.5 2.5 0 0 1 1 23zm1 19v.5a1.5 1.5 0 0 0 1.5 1.5h16.167a11.476 11.476 0 0 1-.863-2zm3.5-1H2v-18A1.5 1.5 0 0 1 3.5 2h2zm1 0H10v-9a2.5 2.5 0 0 1 2.5-2.5h.166a2.5 2.5 0 0 1 1.776.741l5.643 5.701a5.835 5.835 0 0 1 2.896-1.753l-.421-.421C20.985 12.693 22.1 10 24.328 10H30V6.5H12.5A2.5 2.5 0 0 1 10 4V2H6.5zM11 2v2a1.5 1.5 0 0 0 1.5 1.5H30v-2A1.5 1.5 0 0 0 28.5 2zm19 9h-5.672c-1.336 0-2.006 1.616-1.06 2.56l.945.947c.095-.005.19-.007.287-.007 2.512 0 4.587 1.482 5.5 3.658zm-.66 10.86a4.76 4.76 0 0 0 .16-1.17c0-2.955-2.185-5.19-5-5.19-1.638 0-3.062.756-3.967 1.97a.494.494 0 0 1-.021.03c-.638.868-1.012 1.968-1.012 3.19a4.76 4.76 0 0 0 .169 1.2c.236.91.704 1.886 1.285 2.846l.006.01c.102.169.208.337.317.504.999 1.538 2.183 2.907 2.91 3.697a.42.42 0 0 0 .626 0c.727-.79 1.911-2.16 2.91-3.697.109-.167.215-.335.317-.504l.006-.01c.581-.96 1.049-1.936 1.285-2.845a.559.559 0 0 1 .008-.032zm.234 2.172c.157-.318.3-.64.424-.964-.017.371-.176.71-.424.964zM18.566 21.5a5.212 5.212 0 0 1-.066-.81c0-1.284.355-2.465.975-3.443l-5.743-5.802A1.5 1.5 0 0 0 12.666 11H12.5a1.5 1.5 0 0 0-1.5 1.5v9zm-.162 4h-4.808c.023.162.046.348.064.548.055.624.066 1.475-.195 2.136-.257.648-.805 1.194-1.329 1.605a7.814 7.814 0 0 1-.28.211h8.289a7.814 7.814 0 0 1-.281-.21c-.524-.412-1.072-.958-1.329-1.606-.261-.66-.25-1.512-.195-2.136.018-.2.04-.386.064-.548zM14.5 4a.5.5 0 0 1 .5-.5h2a.5.5 0 0 1 0 1h-2a.5.5 0 0 1-.5-.5zm10 14.5a2 2 0 1 0 0 4 2 2 0 0 0 0-4zm-3 2a3 3 0 1 1 6 0 3 3 0 0 1-6 0z" clip-rule="evenodd" opacity="1" data-original="#000000"></path></g></svg>