<svg xmlns="http://www.w3.org/2000/svg" version="1.1" xmlns:xlink="http://www.w3.org/1999/xlink" width="512" height="512" x="0" y="0" viewBox="0 0 330 330" style="enable-background:new 0 0 512 512" xml:space="preserve"><g><path d="M211.2 213.5v-44.2c0-6.1 1.9-8 7.9-8h63.3c5.4 0 7.6 2.2 7.6 7.6v73.5c0 2.5.4 3.5 3.2 3.4 5.1-.3 13-.1 18.1-.1 1.6 0 3 .2 3.7 1.8s.1 2.8-.9 4c-13.7 16.1-46.4 50.4-60.1 66.5-2.1 2.5-3.7 2.5-5.9-.1-13.6-16-45.4-50.2-59-66.2-1.1-1.3-1.9-2.6-1-4.3s2.2-1.7 3.8-1.7c5.1 0 11.1-.2 16.2.1 2.8.1 3.3-.9 3.3-3.4-.2-15.1-.2-13.8-.2-28.9zM145.7 230.1c-1.4-.9-2.1-2.6-1.9-4.2.1-4.5 0-8.9.1-13.4 0-1.2-.4-1.6-1.5-1.7-9.4-1.4-18.3-5.1-25.9-10.7-2.2-1.5-4.2-3.2-6-5.1-1.4-1.6-1.6-2.9-.3-4.6 2.9-3.9 5.8-7.7 8.8-11.5 1.6-2 3.2-2.2 5.2-.5 6.2 5.6 13.7 9.5 21.8 11.3 6.8 1.4 13.3 1 19.5-2.7 6.5-3.9 9.7-14.2 1.2-20.8-4.4-3.4-9.6-5.4-14.8-7.6-6.5-2.7-13.1-5.1-19.3-8.4s-11.7-7.3-15.8-13.1c-4.3-6.1-6.1-13.5-5.2-20.9 1.6-14.4 10.3-23.2 22.9-28.8 2.6-1.1 5.3-1.9 8.1-2.4 1.1-.2 1.2-.7 1.2-1.6V68.9c0-2.6 1.1-3.7 3.7-3.7h11.2c2.3 0 3.3 1 3.3 3.3V83c0 1 .3 1.4 1.3 1.5 9.5 1.1 18.5 4.9 26 10.8.4.3.8.7 1.2 1.1 1.7 1.6 1.9 2.5.7 4.5-2.3 4.2-4.6 8.3-6.9 12.5-1.3 2.3-3.1 2.7-5.3 1-2.9-2.3-6-4.3-9.4-5.9-7.3-3.4-14.8-4.9-22.7-2.8-5.3 1.4-9.9 3.9-11.7 9.6-1.5 4.7 0 9.2 3.7 12.4 4.8 4.3 10.7 6.5 16.6 8.8 7.1 2.8 14.2 5.5 21 9.1 4.8 2.5 9 5.9 12.4 10 3.7 4.5 5.4 9.9 5.9 15.7 0 .6.1 1.3.1 1.9.3.6-.1 1.4.3 2v1c-.4 2.3-.2 4.7-.8 7-1.5 5.8-4.3 11.1-8.4 15.6-5.9 6.6-13.4 10.4-21.9 12.3-1 0-1.7.9-1.7 1.9v.2c.1 4.4 0 8.9 0 13.4 0 1.7-.6 3-2.4 3.5z" fill="#ffffff" opacity="1" data-original="#000000"></path><path d="M161.7 253.8c-3.1.3-6.3.4-9.5.4-58.8 0-106.5-47.7-106.5-106.5S93.4 41.2 152.2 41.2s106.5 47.7 106.5 106.5h31v-.1C289.6 72.8 227 10.2 152.3 10.2 76.4 10.1 14.8 71.6 14.8 147.5v.2c0 74.8 62.7 137.4 137.4 137.4 12.2 0 24.4-1.6 36.2-4.8z" fill="#ffffff" opacity="1" data-original="#000000"></path></g></svg>