<?xml version="1.0"?>
<svg xmlns="http://www.w3.org/2000/svg" id="outline" viewBox="0 0 512 512" width="512" height="512"><circle cx="160" cy="200" r="8"/><circle cx="192" cy="200" r="8"/><path d="M464.36719,320H368a7.99975,7.99975,0,0,0-7.42773,5.02881l-6.92261,17.3064-93.93384-93.93287A55.59859,55.59859,0,0,0,221.648,232.03723,55.8021,55.8021,0,0,0,224,216V202.42188L238.624,180.486l.02051-.03088.01172-.01758-.00073-.00049A7.95976,7.95976,0,0,0,240,176V152a64.07239,64.07239,0,0,0-64-64H153.88867a36.70483,36.70483,0,0,0-30.58789,16.23291A48.06407,48.06407,0,0,0,80,152v16a72.3475,72.3475,0,0,0,28.7998,57.60059L112,228.00049V232H91.88184A75.96767,75.96767,0,0,0,16,307.88232V496H32V354.47205a77.02815,77.02815,0,0,0,6.22461,7.067l83.71582,83.71582A63.58247,63.58247,0,0,0,167.19629,464h1.60864A40.068,40.068,0,0,0,208,496H407.751a31.84664,31.84664,0,0,0,29.71093-20.11523l49.18848-122.9712A23.99941,23.99941,0,0,0,464.36719,320ZM325.07324,413.77625l-.03906-.23475a44.77,44.77,0,0,0-32.02295-35.84423L263.314,348,300,311.314l47.18457,47.18409ZM270,377.31372a44.94419,44.94419,0,0,0-9.375,3.42944L238.11133,392H224V331.31348ZM128,255.13849a55.93563,55.93563,0,0,0,54.06445,15.071A27.99531,27.99531,0,0,1,128,260ZM168,256a40.04552,40.04552,0,0,1-40-40V177.42639a46.65323,46.65323,0,0,0,16.8877-17.41907A65.48188,65.48188,0,0,0,195.77734,184H208v32A40.04552,40.04552,0,0,1,168,256ZM153.88867,104H176a48.054,48.054,0,0,1,48,48v16H195.77734a49.61693,49.61693,0,0,1-44.62207-27.57764l-14.019-28.03808A20.80306,20.80306,0,0,1,153.88867,104ZM96,168V152a32.05042,32.05042,0,0,1,27.23242-31.64551l11.82349,23.64569-3.47779,6.95587A30.66553,30.66553,0,0,1,104,168v16a47.46569,47.46569,0,0,0,8-.70117v23.84888A56.29682,56.29682,0,0,1,96,168ZM32,307.88232A59.95027,59.95027,0,0,1,91.88184,248H112v12a43.99681,43.99681,0,0,0,87.95044,1.952A56.44821,56.44821,0,0,0,213.91675,248h6.20141a39.73587,39.73587,0,0,1,28.28321,11.71582L288.686,300,252,336.686l-30.34277-30.34278A8.0001,8.0001,0,0,0,208,312v80H179.31348L93.65723,306.34326,82.34277,317.65674,112.686,348,79.99976,380.68628l-30.4607-30.46069A59.48817,59.48817,0,0,1,32,307.88232ZM133.25488,433.94141,91.31372,392.00024,124,359.314l46.34277,46.34278A8.00076,8.00076,0,0,0,176,408h64a7.99934,7.99934,0,0,0,3.57812-.84473l24.20313-12.10156A28.927,28.927,0,0,1,309.251,416.17236l2.18066,13.082L296,444.68652l-18.34277-18.34326a8.00065,8.00065,0,0,0-9.23535-1.49853L222.11133,448h-54.915A47.68384,47.68384,0,0,1,133.25488,433.94141ZM276.686,448h-18.7981l12.532-6.26611Zm-91.31495,16h119.6128l-6.40015,16H208A24.04166,24.04166,0,0,1,185.37109,464Zm130.44532,16L373.416,336h2.95117a8.00061,8.00061,0,0,1,7.42773,10.97119L334.60645,469.94238A15.923,15.923,0,0,1,319.751,480ZM471.79492,346.97119,422.60645,469.94238A15.923,15.923,0,0,1,407.751,480H347.46a32.508,32.508,0,0,0,2.00195-4.11523l49.18848-122.9712A23.966,23.966,0,0,0,398.99121,336h65.376a8.00061,8.00061,0,0,1,7.42773,10.97119Z"/><path d="M472,16H280a24.02718,24.02718,0,0,0-24,24V224h16V80H480V248a8.00917,8.00917,0,0,1-8,8H456a8.00008,8.00008,0,0,0-8,8v24.45459l-43.35059-30.96436A7.99806,7.99806,0,0,0,400,256H296v16H397.43652l53.91407,38.50977A7.99952,7.99952,0,0,0,464,304V272h8a24.02718,24.02718,0,0,0,24-24V40A24.02718,24.02718,0,0,0,472,16ZM272,64V40a8.00917,8.00917,0,0,1,8-8H472a8.00917,8.00917,0,0,1,8,8V64Z"/><circle cx="296" cy="48" r="8"/><circle cx="320" cy="48" r="8"/><circle cx="344" cy="48" r="8"/><path d="M296,160h48a8.00008,8.00008,0,0,0,8-8V107.314l13.65723-13.65722L354.34277,82.34326,340.686,96H296a8.00008,8.00008,0,0,0-8,8v48A8.00008,8.00008,0,0,0,296,160Zm8-48h20.686l-10.34327,10.34326,11.31446,11.31348L336,123.314V144H304Z"/><rect x="376" y="104" width="16" height="16"/><rect x="408" y="104" width="56" height="16"/><rect x="376" y="136" width="48" height="16"/><path d="M288,232a8.00008,8.00008,0,0,0,8,8h48a8.00008,8.00008,0,0,0,8-8V187.314l13.65723-13.65722-11.31446-11.31348L340.686,176H296a8.00008,8.00008,0,0,0-8,8Zm16-40h20.686l-10.34327,10.34326,11.31446,11.31348L336,203.314V224H304Z"/><rect x="376" y="184" width="32" height="16"/><rect x="424" y="184" width="40" height="16"/><rect x="376" y="216" width="64" height="16"/></svg>
