<svg id="Layer_1" enable-background="new 0 0 500 500" viewBox="0 0 500 500" xmlns="http://www.w3.org/2000/svg"><path clip-rule="evenodd" d="m329.937 235.311h8.548l.001 54.738h-8.548zm-6.872 68.444 22.237-.001c3.812 0 6.873-3.067 6.873-6.85l-.002-68.444c0-3.783-3.061-6.856-6.873-6.856l-22.237.001c-3.754 0-6.816 3.073-6.815 6.856l.002 68.444c0 3.783 3.061 6.85 6.815 6.85zm-42.049-42.908h8.549l.001 29.203h-8.549zm-6.872 42.909 22.237-.001c3.812 0 6.873-3.067 6.873-6.85l-.001-42.915c0-3.795-3.061-6.856-6.874-6.856l-22.237.001c-3.754 0-6.873 3.061-6.873 6.856l.001 42.915c0 3.783 3.119 6.85 6.874 6.85zm104.713-123.658h8.548l.003 109.95h-8.548zm-6.87 123.656 22.295-.001c3.754 0 6.815-3.067 6.815-6.85l-.003-123.661c0-3.783-3.061-6.856-6.815-6.856l-22.295.001c-3.754 0-6.815 3.073-6.815 6.856l.003 123.661c-.001 3.783 3.06 6.85 6.815 6.85zm-139.893-54.954h8.491l.001 41.251h-8.491zm-6.872 54.957 22.237-.001c3.812 0 6.873-3.067 6.873-6.85l-.001-54.963c0-3.783-3.061-6.856-6.874-6.856l-22.237.001c-3.754 0-6.873 3.073-6.873 6.856l.001 54.963c.001 3.784 3.12 6.85 6.874 6.85zm48.109-166.473c-.231-.664-1.155-1.346-2.599-2.004-2.08-.849-3.928-.976-6.296-1.132-2.109-.139-7.694-.578-10.916-2.281-8.722-4.014-10.686-9.986-10.801-14.278-.09-6.692 4.806-13.81 15.248-16.219 0-3.867 3.054-6.914 6.815-6.914 3.754 0 6.815 2.974 6.873 6.677 4.159.641 7.971 1.802 11.494 3.494 3.471 1.649 4.837 5.767 3.292 9.132-1.675 3.419-5.718 4.881-9.183 3.252-3.523-1.698-7.624-2.599-12.418-2.743-2.195.029-4.101.404-5.718 1.109-1.439.375-2.673 1.591-2.657 1.975.231.664 1.56 1.467 2.715 2.016 4.04 1.783 10.758.374 17.097 3.367 9.089 4.291 10.998 10.695 10.859 15.023-.204 6.356-5.479 13.278-15.479 15.538 0 4.037-3.468 7.099-6.989 6.879-3.697-.081-6.642-3.026-6.7-6.671-3.986-.635-7.797-1.784-11.494-3.448-3.549-1.601-4.866-5.806-3.408-9.079 1.559-3.443 5.66-4.968 9.068-3.408 5.106 2.325 13.145 4.021 18.656 1.663 1.79-.775 2.368-1.474 2.541-1.948zm-8.55-52.185c-23.219.001-42.164 18.94-42.163 42.217s18.946 42.215 42.165 42.215c23.334-.001 42.221-18.94 42.221-42.217s-18.888-42.215-42.223-42.215zm.003 98.144c30.843-.001 55.967-25.092 55.967-55.929-.001-30.832-25.127-55.921-55.969-55.921-30.843.001-55.91 25.092-55.909 55.923 0 30.838 25.068 55.928 55.911 55.927zm-106.62 113.729-94.378.002-.001-28.648 94.378-.002zm1.096-42.354-96.515.002c-6.989 0-12.649 5.672-12.649 12.638l.001 30.785c0 6.966 5.661 12.643 12.65 12.643l96.515-.002c6.989 0 12.649-5.678 12.649-12.644l-.001-30.785c0-6.966-5.661-12.637-12.65-12.637zm-6.524 86.418h5.429v5.458h-5.429zm-3.639 19.171h12.707c5.545 0 10.108-4.517 10.107-10.073v-12.724c0-5.556-4.563-10.079-10.108-10.078h-12.707c-5.545 0-10.108 4.523-10.107 10.079v12.724c.001 5.555 4.564 10.072 10.108 10.072zm-79.821 28.65h-5.487v-5.47h5.487zm3.638-19.182h-12.707c-5.603 0-10.108 4.523-10.108 10.085v12.724c0 5.556 4.505 10.079 10.108 10.078h12.707c5.545 0 10.05-4.523 10.05-10.079v-12.724c0-5.562-4.505-10.084-10.05-10.084zm85.253 61.523h-5.429l-.001-47.813h5.429zm6.872-61.525h-19.176c-3.754 0-6.873 3.073-6.873 6.856l.002 61.524c0 3.783 3.119 6.856 6.873 6.856h19.176c3.812 0 6.873-3.073 6.873-6.856l-.002-61.524c.001-3.783-3.061-6.856-6.873-6.856zm-95.762 61.527h-5.487v-5.458h5.487zm3.638-19.165h-12.707c-5.603 0-10.108 4.511-10.108 10.073v12.73c0 5.556 4.505 10.073 10.108 10.073h12.707c5.545 0 10.05-4.517 10.05-10.073v-12.73c0-5.562-4.505-10.073-10.05-10.073zm40.836 19.164h-5.487v-5.458h5.487zm3.638-19.165h-12.765c-5.545 0-10.05 4.511-10.05 10.073v12.73c0 5.556 4.505 10.073 10.05 10.073h12.765c5.545 0 10.05-4.517 10.05-10.073v-12.73c0-5.562-4.505-10.073-10.05-10.073zm-3.639-23.178h-5.487v-5.47h5.487zm3.638-19.182h-12.765c-5.545 0-10.05 4.523-10.05 10.085v12.724c0 5.556 4.505 10.079 10.05 10.078h12.765c5.545 0 10.05-4.523 10.05-10.079v-12.724c0-5.562-4.505-10.084-10.05-10.084zm-48.113-23.177h-5.487v-5.458h5.487zm3.638-19.165h-12.707c-5.603 0-10.108 4.523-10.108 10.079v12.724c0 5.556 4.505 10.073 10.108 10.073h12.707c5.545 0 10.05-4.517 10.05-10.073v-12.724c0-5.557-4.505-10.079-10.05-10.079zm40.836 19.164h-5.487v-5.458h5.487zm3.638-19.165h-12.765c-5.545 0-10.05 4.523-10.05 10.079v12.724c0 5.556 4.505 10.073 10.05 10.073h12.765c5.545 0 10.05-4.517 10.05-10.073v-12.724c0-5.557-4.505-10.079-10.05-10.079zm306.815 42.521-225.952.006-.001-31.45 22.641-.001 6.181 19.083c.924 2.824 3.523 4.73 6.527 4.73l62.437-.002c3.003 0 5.603-1.906 6.527-4.731l6.18-19.084 153.118-.004c-3.234 17.861-18.886 31.452-37.658 31.453zm-239.639 80.44-.005-208.832c0-3.702-3.061-6.717-6.758-6.717l-133.596.003c-3.697 0-6.757 3.015-6.757 6.718l.005 208.832c0 3.703 3.061 6.717 6.758 6.717l133.596-.003c3.697-.001 6.758-3.016 6.757-6.718zm109.797-111.887-59.087.001 3.293 10.108 52.503-.001zm-179.461-186.983.002 69.611 62.899-.002c11.263 0 20.447 9.172 20.447 20.429l.002 83.236 216.48-.005-.004-173.276c0-9.126-7.394-16.536-16.52-16.536l-35.348.001v4.719c0 2.957-1.906 5.591-4.736 6.515l-15.768 5.118c-1.502 4.829-3.408 9.513-5.776 13.995l7.509 14.763c1.328 2.651.809 5.857-1.27 7.959l-17.385 17.369c-2.079 2.091-5.314 2.605-7.971 1.259l-14.729-7.52c-4.505 2.368-9.184 4.315-14.035 5.805l-5.082 15.745c-.924 2.825-3.581 4.736-6.527 4.736l-24.548.001c-3.003 0-5.603-1.911-6.527-4.736l-5.141-15.745c-4.794-1.49-9.472-3.436-13.978-5.804l-14.786 7.52c-2.599 1.346-5.834.832-7.913-1.259l-17.386-17.368c-2.079-2.102-2.599-5.308-1.271-7.959l7.508-14.763c-2.368-4.482-4.274-9.16-5.776-13.995l-15.768-5.117c-2.83-.924-4.736-3.558-4.736-6.515v-4.719l-35.348.001c-9.125 0-16.518 7.411-16.518 16.537zm65.613-31.4v14.596l14.498 4.707c2.195.722 3.928 2.541 4.505 4.817 1.56 6.122 3.986 11.99 7.22 17.449 1.213 2.021 1.271 4.517.231 6.602l-6.931 13.591 10.339 10.316 13.573-6.926c2.079-1.063 4.563-.988 6.584.208 5.487 3.24 11.321 5.666 17.443 7.242 2.31.583 4.101 2.282 4.852 4.522l4.679 14.486h14.613l4.678-14.497c.751-2.23 2.541-3.928 4.852-4.511 6.122-1.577 11.956-4.015 17.443-7.243 2.021-1.196 4.505-1.271 6.584-.208l13.573 6.925 10.339-10.316-6.932-13.59c-1.039-2.097-.982-4.58.231-6.602 3.234-5.464 5.66-11.332 7.219-17.461.578-2.264 2.31-4.084 4.505-4.806l14.497-4.708v-14.596l-14.498-4.707c-2.195-.733-3.927-2.541-4.505-4.817-1.56-6.128-3.985-11.996-7.22-17.449-1.213-2.022-1.271-4.517-.231-6.608l6.931-13.585-10.339-10.321-13.573 6.92c-2.079 1.069-4.563.988-6.584-.202-5.487-3.234-11.321-5.666-17.443-7.237-2.31-.583-4.101-2.293-4.852-4.522l-4.679-14.468h-14.613l-4.678 14.469c-.751 2.229-2.541 3.939-4.852 4.522-6.122 1.571-11.956 4.003-17.443 7.238-2.022 1.19-4.505 1.271-6.584.202l-13.574-6.919-10.339 10.322 6.932 13.585c1.039 2.091.982 4.586-.231 6.608-3.234 5.452-5.66 11.332-7.219 17.449-.578 2.276-2.31 4.084-4.505 4.817zm288.857 204.667-40.893.001-.004-173.276c0-16.687-13.574-30.248-30.266-30.248l-35.348.001v-6.134c0-2.969-1.906-5.603-4.736-6.515l-15.768-5.117c-1.502-4.834-3.408-9.524-5.776-14.006l7.508-14.763c1.328-2.639.809-5.857-1.271-7.947l-17.386-17.368c-2.079-2.079-5.314-2.599-7.971-1.265l-14.728 7.526c-4.505-2.38-9.184-4.314-14.035-5.805l-5.083-15.762c-.924-2.83-3.581-4.736-6.527-4.736l-24.548.001c-3.003 0-5.603 1.906-6.527 4.736l-5.14 15.762c-4.794 1.49-9.472 3.426-13.977 5.805l-14.786-7.526c-2.599-1.334-5.834-.814-7.913 1.265l-17.385 17.369c-2.079 2.091-2.599 5.308-1.27 7.947l7.509 14.763c-2.368 4.488-4.274 9.172-5.776 14.007l-15.768 5.118c-2.83.913-4.736 3.547-4.736 6.515v6.134l-35.348.001c-16.692 0-30.265 13.563-30.265 30.249l.002 69.611-56.95.001c-11.263 0-20.446 9.173-20.446 20.43l.005 208.832c0 11.269 9.184 20.429 20.447 20.429l133.596-.003c11.263 0 20.446-9.161 20.446-20.43l-.002-66.723 225.952-.006c28.648-.001 52.04-23.341 52.039-52.025-.002-3.781-3.121-6.848-6.875-6.848z" fill-rule="evenodd"/></svg>