<svg clip-rule="evenodd" fill-rule="evenodd" height="1.707in" image-rendering="optimizeQuality" shape-rendering="geometricPrecision" text-rendering="geometricPrecision" viewBox="0 0 1707 1707" width="1.707in" xmlns="http://www.w3.org/2000/svg"><g id="Layer_x0020_1"><path d="m1024 1404v-90c0-38 59-38 59 0v90h101v-139c0-77-62-139-139-139h-68l-105 103c-12 11-30 11-41 0l-106-103h-63c-77 0-140 62-140 139v139h102v-90c0-38 58-38 58 0v90zm553 303h-1447c-9 0-18-5-23-12l-101-133c-15-19-1-47 23-47h107v-879c0-33 28-61 61-61h369c11-98 60-186 155-203v-343c0-16 13-29 29-29h927c17 0 30 13 30 29v416c0 17-13 30-30 30h-551c14 24 8 55 19 100h364c34 0 61 28 61 61v879h107c24 0 38 28 24 47l-101 133c-5 7-14 12-23 12zm-1433-59h1418l57-74h-1531zm769-1232h735v-358h-869v312c74 8 104 36 134 46zm-447 628c-71 0-129-57-129-128s58-129 129-129 128 58 128 129-57 128-128 128zm-30-192c-68 31-45 134 30 134 28 0 52-17 64-41-103 0-94 9-94-93zm94 35c-7-16-20-28-35-35v35zm805 44h-180c-39 0-39-59 0-59h180c38 0 38 59 0 59zm0 89h-236c-39 0-39-58 0-58h236c38 0 38 58 0 58zm239-859h-720c-38 0-38-59 0-59h720c38 0 38 59 0 59zm0 106h-720c-38 0-38-59 0-59h720c38 0 38 59 0 59zm0 106h-720c-38 0-38-59 0-59h720c38 0 38 59 0 59zm-1256 148h-118c-14 0-26-10-29-24l-11-65-62 23c-13 5-28-1-35-13l-59-103c-7-12-4-27 6-36l51-43-51-42c-10-9-13-24-6-37l59-102c7-12 22-18 35-13l62 23 11-65c3-14 15-24 29-24h118c14 0 26 10 29 24l11 65 62-23c13-5 28 1 35 13l59 102c7 13 4 28-6 37l-51 42 51 43c10 9 13 24 6 37l-59 102c-7 12-22 18-35 13l-62-23-11 65c-3 14-15 24-29 24zm-94-59h70l12-69c3-18 27-32 44-26l67 24 34-59-54-46c-14-12-14-39 0-51l54-46-34-59-67 24c-17 6-41-8-44-26l-12-70h-70l-12 70c-3 18-27 32-44 26l-67-24-34 59 54 46c14 12 14 39 0 51l-54 46 34 59 67-24c17-6 41 8 44 26zm35-106c-53 0-96-43-96-96 0-52 43-95 96-95s96 43 96 95c0 53-43 96-96 96zm0-133c-49 0-49 75 0 75s49-75 0-75zm1171 1240h-1154c-16 0-29-13-29-29v-718c0-16 13-30 29-30h296c-5-15-7-33-8-52h-367c-1 0-2 1-2 2v879h1317v-879c0-1-1-2-3-2h-358c-2 16-7 33-18 52h297c16 0 29 14 29 30v718c0 16-13 29-29 29zm-852-718h-272v659h158v-139c0-109 89-198 198-198h46v-87c-50-31-76-69-98-116-13-28-31-74-32-119zm665 659h158v-659h-272c1 80-60 168-80 190-16 17-35 33-54 45v87h50c109 0 198 89 198 198zm-175-679-3-8c-27-39-184-6-230-6-25 0-44-4-58-13-29-18-59-35-77-35-15 0-31 14-61 53-9 27 0 73 24 123 23 49 46 75 86 98 84 48 191 31 256-42 26-27 79-117 63-170zm-302 283v76l85 83 85-83v-76c-55 19-114 19-170 0zm227-369c37 0 66 6 89 19 27-48-2-65-4-136 0-19 0-30-76-35-147-8-109-30-200-53-150-39-189 113-179 210 60-63 110-42 185 4 19 12 139-9 185-9z"/></g></svg>