<svg id="Layer_1" height="512" viewBox="0 0 66 66" width="512" xmlns="http://www.w3.org/2000/svg"><g><g><path d="m21.1 35.8 1.7.3c.2.6.5 1.2.8 1.8l-1 1.4c-.3.4-.2.9.1 1.3l2.6 2.6c.3.3.9.4 1.3.1l1.4-1c.6.3 1.2.6 1.8.8l.3 1.7c.1.5.5.8 1 .8h3.7c.5 0 .9-.3 1-.8l.3-1.7c.6-.2 1.2-.5 1.8-.8l1.4 1c.4.3.9.2 1.3-.1l2.6-2.6c.3-.3.4-.9.1-1.3l-1-1.4c.3-.6.6-1.2.8-1.8l1.7-.3c.5-.1.8-.5.8-1v-3.7c0-.5-.3-.9-.8-1l-1.7-.3c-.2-.6-.5-1.2-.8-1.8l1-1.4c.3-.4.2-.9-.1-1.3l-2.6-2.6c-.3-.3-.9-.4-1.3-.1l-1.4 1c-.6-.3-1.2-.6-1.8-.8l-.3-1.7c-.1-.5-.5-.8-1-.8h-3.7c-.5 0-.9.3-1 .8l-.3 1.7c-.6.2-1.2.5-1.8.8l-1.4-1c-.4-.3-.9-.2-1.3.1l-2.6 2.6c-.3.3-.4.9-.1 1.3l1 1.4c-.3.6-.6 1.2-.8 1.8l-1.7.3c-.5.1-.8.5-.8 1v3.7c0 .5.3 1 .8 1zm1.2-3.8 1.5-.3c.4-.1.7-.4.8-.8.2-.9.6-1.7 1-2.5.2-.3.2-.8 0-1.1l-.9-1.3 1.4-1.4 1.3.9c.3.2.8.2 1.1 0 .8-.5 1.6-.8 2.5-1 .4-.1.7-.4.8-.8l.3-1.5h2l.3 1.5c.1.4.4.7.8.8.9.2 1.7.6 2.5 1 .3.2.8.2 1.1 0l1.3-.9 1.4 1.4-.9 1.3c-.2.3-.2.8 0 1.1.5.8.8 1.6 1 2.5.1.4.4.7.8.8l1.5.3v2l-1.5.3c-.4.1-.7.4-.8.8-.2.9-.6 1.7-1 2.5-.2.3-.2.8 0 1.1l.9 1.3-1.4 1.4-1.3-.9c-.3-.2-.8-.2-1.1 0-.8.5-1.6.8-2.5 1-.4.1-.7.4-.8.8l-.4 1.4h-2l-.3-1.5c-.1-.4-.4-.7-.8-.8-.9-.2-1.7-.6-2.5-1-.3-.2-.8-.2-1.1 0l-1.3.9-1.4-1.4.9-1.3c.2-.3.2-.8 0-1.1-.5-.8-.8-1.6-1-2.5-.1-.4-.4-.7-.8-.8l-1.4-.2z"/></g><g><path d="m33 39.5c3.6 0 6.5-2.9 6.5-6.5s-2.9-6.5-6.5-6.5-6.5 2.9-6.5 6.5 2.9 6.5 6.5 6.5zm0-11c2.5 0 4.5 2 4.5 4.5s-2 4.5-4.5 4.5-4.5-2-4.5-4.5 2-4.5 4.5-4.5z"/></g><g><path d="m8.3 44.6c-.3 0-.5.1-.7.3l-1.6 1.8c-.5-.2-.9-.3-1.5-.3-2 0-3.5 1.6-3.5 3.5s1.5 3.5 3.5 3.5 3.5-1.5 3.5-3.5c0-.6-.2-1.2-.5-1.8l1.3-1.5h2.2v8c0 .6.4 1 1 1h8.2v2.2c-1.4.4-2.5 1.7-2.5 3.3 0 1.9 1.5 3.5 3.5 3.5 1.9 0 3.5-1.5 3.5-3.5 0-1.6-1-2.9-2.5-3.3v-3.2c0-.6-.4-1-1-1h-8.2v-7h2.4v2.4c0 .3.1.5.3.7s.4.3.7.3h15.6v5.9c-1.4.4-2.5 1.7-2.5 3.3 0 1.9 1.5 3.5 3.5 3.5 1.9 0 3.5-1.5 3.5-3.5 0-1.6-1-2.9-2.5-3.3v-5.9h15.6c.6 0 1-.4 1-1v-2.3h2.4v7h-8.2c-.6 0-1 .4-1 1v3.2c-1.4.4-2.5 1.7-2.5 3.3 0 1.9 1.5 3.5 3.5 3.5s3.5-1.5 3.5-3.5c0-1.6-1-2.9-2.5-3.3v-2.2h8.2c.6 0 1-.4 1-1v-8h2.3l1.3 1.5c-.3.5-.5 1.1-.5 1.8 0 1.9 1.5 3.5 3.5 3.5 1.9 0 3.5-1.5 3.5-3.5 0-1.9-1.5-3.5-3.5-3.5-.5 0-1 .1-1.5.3l-1.7-1.8c-.2-.2-.5-.3-.7-.3h-7.1v-10.6h3.8c.4 1.4 1.7 2.5 3.3 2.5 1.9 0 3.5-1.5 3.5-3.5s-1.5-3.5-3.5-3.5c-1.6 0-2.9 1-3.3 2.5h-3.8v-10.6h7.1c.3 0 .5-.1.7-.3l1.6-1.8c.5.2.9.3 1.5.3 1.9 0 3.5-1.5 3.5-3.5s-1.5-3.5-3.5-3.5c-1.9 0-3.5 1.5-3.5 3.5 0 .6.2 1.2.5 1.8l-1.3 1.5h-2.2v-8c0-.6-.4-1-1-1h-8.2v-2.3c1.4-.4 2.5-1.7 2.5-3.3 0-1.9-1.5-3.5-3.5-3.5s-3.5 1.6-3.5 3.5c0 1.6 1 2.9 2.5 3.3v3.2c0 .6.4 1 1 1h8.2v7h-2.4v-2.4c0-.6-.4-1-1-1h-15.6v-5.4c1.4-.4 2.5-1.7 2.5-3.3 0-1.9-1.5-3.5-3.5-3.5-1.9 0-3.5 1.5-3.5 3.5 0 1.6 1 2.9 2.5 3.3v5.4h-15.6c-.6 0-1 .4-1 1v2.3h-2.4v-7h8.2c.6 0 1-.4 1-1v-3.1c1.4-.4 2.5-1.7 2.5-3.3 0-1.9-1.5-3.5-3.5-3.5-1.9 0-3.5 1.5-3.5 3.5 0 1.6 1 2.9 2.5 3.3v2.2h-8.2c-.6 0-1 .4-1 1v8h-2.3l-1.3-1.5c.3-.5.5-1.1.5-1.8 0-1.9-1.5-3.5-3.5-3.5s-3.4 1.6-3.4 3.5 1.5 3.5 3.5 3.5c.5 0 1-.1 1.5-.3l1.6 1.7c.2.2.5.3.7.3h7.1v10.6h-4.3c-.4-1.4-1.7-2.5-3.3-2.5-1.9 0-3.5 1.5-3.5 3.5s1.5 3.5 3.5 3.5c1.6 0 2.9-1 3.3-2.5h4.3v10.6h-7.1zm-3.8 6.7c-.8 0-1.5-.7-1.5-1.5s.7-1.5 1.5-1.5 1.5.7 1.5 1.5c-.1.9-.7 1.5-1.5 1.5zm18.2 9.8c0 .8-.7 1.5-1.5 1.5s-1.5-.7-1.5-1.5.6-1.4 1.4-1.5c.9.1 1.6.7 1.6 1.5zm11.8-1.9c0 .8-.7 1.5-1.5 1.5s-1.5-.7-1.5-1.5.6-1.4 1.4-1.5c.9 0 1.6.7 1.6 1.5zm11.7 1.9c0 .8-.7 1.5-1.5 1.5s-1.5-.7-1.5-1.5.6-1.4 1.4-1.5c1 .1 1.6.7 1.6 1.5zm16.8-11.2c0 .8-.7 1.5-1.5 1.5s-1.5-.7-1.5-1.5.7-1.5 1.5-1.5 1.5.7 1.5 1.5zm-5.3-18.4c.8 0 1.5.7 1.5 1.5s-.7 1.5-1.5 1.5-1.5-.7-1.5-1.5.7-1.5 1.5-1.5zm3.8-16.8c.8 0 1.5.7 1.5 1.5s-.7 1.5-1.5 1.5-1.5-.7-1.5-1.5c.1-.9.7-1.5 1.5-1.5zm-18.2-9.8c0-.8.7-1.5 1.5-1.5s1.5.7 1.5 1.5-.7 1.5-1.5 1.5-1.5-.7-1.5-1.5zm-11.7 2.5c0-.8.7-1.5 1.5-1.5s1.5.7 1.5 1.5-.6 1.4-1.4 1.5c-1-.1-1.6-.8-1.6-1.5zm-11.8-2.5c0-.8.7-1.5 1.5-1.5s1.5.7 1.5 1.5-.7 1.5-1.5 1.5c-.9 0-1.5-.7-1.5-1.5zm-16.8 11.2c0-.8.7-1.5 1.5-1.5s1.5.7 1.5 1.5-.7 1.5-1.5 1.5-1.5-.7-1.5-1.5zm4.8 18.4c-.8 0-1.5-.7-1.5-1.5s.7-1.5 1.5-1.5 1.4.6 1.5 1.4c-.1.9-.7 1.6-1.5 1.6zm40.8-16.5v30h-31.2c0-10.7 0-19.2 0-30z"/></g></g></svg>