<?xml version="1.0"?>
<svg xmlns="http://www.w3.org/2000/svg" id="Layer_1" data-name="Layer 1" viewBox="0 0 512 512"><path d="M302.756,406.894a6,6,0,0,1,0,8.484L269.22,448.915a6,6,0,0,1-8.485-8.484l23.294-23.295H89.208a52.675,52.675,0,0,1-52.616-52.615V220.493a6,6,0,0,1,12,0V364.521a40.661,40.661,0,0,0,40.616,40.615h194.82L259.162,380.27a6,6,0,0,1,8.485-8.485Zm-48.244-235.4A6,6,0,0,0,263,163L238.13,138.137H408.6a40.661,40.661,0,0,1,40.615,40.615V291.1a6,6,0,0,0,12,0V178.752A52.675,52.675,0,0,0,408.6,126.137H238.13l23.294-23.294a6,6,0,0,0-8.485-8.486L219.4,127.9a6,6,0,0,0,0,8.485ZM43.816,175.9l-7.488,1.638a10.849,10.849,0,0,1-11.754-5.193l-6.6-11.432a10.842,10.842,0,0,1,1.4-12.8l5.145-5.612a78.522,78.522,0,0,1-3.044-23.12l-6.46-4.141a10.849,10.849,0,0,1-4.64-11.983L13.8,90.51a10.84,10.84,0,0,1,10.044-8.058l7.612-.33a78.489,78.489,0,0,1,14.187-18.51L44,56.125a10.851,10.851,0,0,1,5.191-11.753l11.434-6.6a10.843,10.843,0,0,1,12.8,1.4l5.609,5.144a78.637,78.637,0,0,1,23.123-3.045l4.14-6.459a10.852,10.852,0,0,1,11.981-4.639l12.753,3.417a10.842,10.842,0,0,1,8.058,10.044l.33,7.612a78.524,78.524,0,0,1,18.509,14.187l7.488-1.638a10.856,10.856,0,0,1,11.753,5.191l6.6,11.434a10.843,10.843,0,0,1-1.4,12.8l-5.144,5.61a78.527,78.527,0,0,1,3.045,23.123l6.458,4.14a10.85,10.85,0,0,1,4.64,11.981l-3.418,12.753a10.843,10.843,0,0,1-10.044,8.058l-7.612.33a78.513,78.513,0,0,1-14.187,18.508l1.638,7.489a10.847,10.847,0,0,1-5.193,11.753l-11.432,6.6a10.843,10.843,0,0,1-12.8-1.4l-5.61-5.144a78.483,78.483,0,0,1-23.122,3.045l-4.141,6.458a10.843,10.843,0,0,1-9.141,5.015,10.976,10.976,0,0,1-2.841-.375l-12.752-3.417A10.843,10.843,0,0,1,62.654,197.7l-.33-7.612A78.519,78.519,0,0,1,43.816,175.9Zm.792-12.457a6,6,0,0,1,5.781,1.89A66.708,66.708,0,0,0,70.838,181.01a6,6,0,0,1,3.326,5.114l.443,10.244,11.177,2.994,5.555-8.665a6.014,6.014,0,0,1,5.423-2.75,66.711,66.711,0,0,0,25.545-3.367,6,6,0,0,1,5.969,1.264l7.55,6.924,10.021-5.786-2.2-10.049a6,6,0,0,1,1.891-5.78A66.732,66.732,0,0,0,161.212,150.7a6,6,0,0,1,5.114-3.326l10.244-.443,2.994-11.177L170.9,130.2a6,6,0,0,1-2.75-5.423,66.7,66.7,0,0,0-3.367-25.544,6,6,0,0,1,1.264-5.969l6.925-7.551-5.786-10.021-10.049,2.2A6,6,0,0,1,151.356,76,66.72,66.72,0,0,0,130.907,60.33a6,6,0,0,1-3.326-5.114l-.444-10.244L115.96,41.978l-5.554,8.665a5.991,5.991,0,0,1-5.424,2.75A66.751,66.751,0,0,0,79.438,56.76,6,6,0,0,1,73.469,55.5l-7.552-6.925L55.9,54.357l2.2,10.048a6,6,0,0,1-1.891,5.78,66.732,66.732,0,0,0-15.672,20.45,6,6,0,0,1-5.114,3.326l-10.243.444-3,11.177,8.667,5.555a6,6,0,0,1,2.75,5.423A66.739,66.739,0,0,0,36.963,142.1a6,6,0,0,1-1.264,5.969l-6.925,7.552,5.786,10.021Zm11.608-17a51.5,51.5,0,1,1,44.74,25.8,51.871,51.871,0,0,1-13.43-1.779A51.231,51.231,0,0,1,56.216,146.452Zm10.393-6a39.564,39.564,0,1,0-3.953-30.022A39.609,39.609,0,0,0,66.609,140.452ZM263.635,250.027A35.805,35.805,0,0,1,299.4,285.792V323.85a21.82,21.82,0,0,1-21.8,21.8H180.149a21.821,21.821,0,0,1-21.8-21.8V285.792a35.805,35.805,0,0,1,35.764-35.765Zm0,12H194.117a23.793,23.793,0,0,0-23.764,23.766V323.85a9.808,9.808,0,0,0,9.8,9.8h7.34V316.138a6,6,0,0,1,12,0v17.508h57.8V316.138a6,6,0,1,1,12,0v17.508H277.6a9.807,9.807,0,0,0,9.8-9.8V285.792A23.792,23.792,0,0,0,263.635,262.026ZM189.6,208.747c0-18.587,17.627-33.709,39.293-33.709s39.294,15.122,39.294,33.709-17.627,33.708-39.294,33.708S189.6,227.333,189.6,208.747Zm12,0c0,11.97,12.244,21.708,27.293,21.708s27.294-9.738,27.294-21.708-12.244-21.709-27.294-21.709S201.6,196.776,201.6,208.747ZM501.622,408.738l-3.417,12.752a10.842,10.842,0,0,1-10.044,8.058l-7.612.33a78.5,78.5,0,0,1-14.187,18.509L468,455.875a10.847,10.847,0,0,1-5.193,11.753l-11.432,6.6a10.845,10.845,0,0,1-12.8-1.4l-5.611-5.144a78.813,78.813,0,0,1-23.122,3.045l-4.14,6.458a10.844,10.844,0,0,1-9.141,5.014,10.955,10.955,0,0,1-2.843-.376l-12.75-3.416a10.84,10.84,0,0,1-8.058-10.044l-.33-7.612a78.524,78.524,0,0,1-18.509-14.187l-7.488,1.637a10.843,10.843,0,0,1-11.753-5.191l-6.6-11.434a10.84,10.84,0,0,1,1.4-12.8l5.145-5.611a78.473,78.473,0,0,1-3.044-23.119l-6.461-4.142a10.849,10.849,0,0,1-4.639-11.981l3.417-12.752a10.843,10.843,0,0,1,10.044-8.059l7.612-.33a78.516,78.516,0,0,1,14.187-18.51l-1.638-7.486a10.849,10.849,0,0,1,5.193-11.754l11.432-6.6a10.845,10.845,0,0,1,12.8,1.4l5.61,5.145a78.6,78.6,0,0,1,23.122-3.045l4.14-6.458a10.848,10.848,0,0,1,11.982-4.64l12.753,3.417a10.84,10.84,0,0,1,8.058,10.044l.33,7.612A78.5,78.5,0,0,1,468.184,336.1l7.489-1.637a10.846,10.846,0,0,1,11.753,5.192l6.6,11.433a10.843,10.843,0,0,1-1.4,12.8l-5.145,5.609a78.491,78.491,0,0,1,3.045,23.122l6.458,4.141A10.849,10.849,0,0,1,501.622,408.738Zm-11.8-2.32-8.665-5.554a6,6,0,0,1-2.75-5.424,66.719,66.719,0,0,0-3.367-25.544,6,6,0,0,1,1.265-5.97l6.923-7.549-5.786-10.022-10.049,2.2a5.992,5.992,0,0,1-5.78-1.891,66.724,66.724,0,0,0-20.449-15.672,6,6,0,0,1-3.326-5.114l-.443-10.243-11.177-3-5.555,8.665a5.99,5.99,0,0,1-5.423,2.75,66.808,66.808,0,0,0-25.545,3.367,6,6,0,0,1-5.969-1.265l-7.55-6.924-10.021,5.787,2.2,10.046a6,6,0,0,1-1.891,5.781,66.732,66.732,0,0,0-15.672,20.45,6,6,0,0,1-5.114,3.326l-10.244.444-2.994,11.177L341.1,381.8a6,6,0,0,1,2.75,5.423,66.731,66.731,0,0,0,3.366,25.541,6,6,0,0,1-1.264,5.968l-6.925,7.553,5.785,10.021,10.05-2.2A5.991,5.991,0,0,1,360.644,436a66.708,66.708,0,0,0,20.449,15.672,6,6,0,0,1,3.326,5.114l.444,10.243,11.177,3,5.554-8.665a6.024,6.024,0,0,1,5.424-2.75,66.688,66.688,0,0,0,25.544-3.367,6,6,0,0,1,5.969,1.265l7.551,6.924,10.021-5.786-2.2-10.048a6,6,0,0,1,1.89-5.781,66.72,66.72,0,0,0,15.673-20.449,6,6,0,0,1,5.114-3.326l10.244-.444Zm-34.036-40.87a51.565,51.565,0,1,1-70.438-18.874A51.622,51.622,0,0,1,455.784,365.548Zm-10.392,6a39.564,39.564,0,1,0-14.482,54.046A39.609,39.609,0,0,0,445.392,371.548Z"/></svg>
