<?xml version="1.0" encoding="UTF-8"?>
<svg xmlns="http://www.w3.org/2000/svg" id="Layer_3" data-name="Layer 3" viewBox="0 0 64 64" width="512" height="512"><path d="M58,13H48.416a8.017,8.017,0,0,0-6.867-4.981,10,10,0,0,0-19.1,0A8.017,8.017,0,0,0,15.584,13H6a5.006,5.006,0,0,0-5,5V51a5.006,5.006,0,0,0,5,5H23.484l-2.4,5.606A1,1,0,0,0,22,63H42a1,1,0,0,0,.919-1.394L40.516,56H58a5.006,5.006,0,0,0,5-5V18A5.006,5.006,0,0,0,58,13ZM23,24h8v3H20a1,1,0,0,0-1,1v3.1a5,5,0,1,0,2,0V29H31v2.1a5,5,0,1,0,2,0V29H43v2.1a5,5,0,1,0,2,0V28a1,1,0,0,0-1-1H33V24h8a8.009,8.009,0,0,0,7.411-5H57V44H7V19h8.589A8.009,8.009,0,0,0,23,24Zm7-10H28.762L32,11.3,35.238,14H34a1,1,0,0,0-1,1l0,7H31V15A1,1,0,0,0,30,14ZM20,33a3,3,0,1,1-3,3A3,3,0,0,1,20,33Zm12,0a3,3,0,1,1-3,3A3,3,0,0,1,32,33Zm12,0a3,3,0,1,1-3,3A3,3,0,0,1,44,33ZM23.08,10A1,1,0,0,0,24.2,9.231a8,8,0,0,1,15.61,0A1.09,1.09,0,0,0,41,10a6,6,0,0,1,0,12H35l0-6h3a1,1,0,0,0,.641-1.768l-6-5a1,1,0,0,0-1.282,0l-6,5A1,1,0,0,0,26,16h3v6H23a6,6,0,1,1,.08-12ZM6,15h9.07a7.229,7.229,0,0,0,0,2H6a1,1,0,0,0-1,1V45a1,1,0,0,0,1,1H58a1,1,0,0,0,1-1V18a1,1,0,0,0-1-1H48.931a7.229,7.229,0,0,0,0-2H58a3,3,0,0,1,3,3V48H3V18A3,3,0,0,1,6,15ZM40.483,61H23.517l2.142-5H38.341ZM58,54H6a3,3,0,0,1-3-3V50H61v1A3,3,0,0,1,58,54Z"/></svg>
