<svg id="Business" height="512" viewBox="0 0 64 64" width="512" xmlns="http://www.w3.org/2000/svg"><path d="m48 44a8 8 0 1 0 -8 8 8.009 8.009 0 0 0 8-8zm-2.09-1h-4.91v-4.91a6.008 6.008 0 0 1 4.91 4.91zm-11.91 1a6.006 6.006 0 0 1 5-5.91v5.91a1 1 0 0 0 1 1h5.91a6 6 0 0 1 -11.91-1z"/><path d="m21 44c2.243 0 4-1.317 4-3h-2c0 .408-.779 1-2 1s-2-.592-2-1h-2c0 1.683 1.757 3 4 3z"/><path d="m18 37a1 1 0 0 0 1-1v-1a1 1 0 0 0 -2 0v1a1 1 0 0 0 1 1z"/><path d="m24 37a1 1 0 0 0 1-1v-1a1 1 0 0 0 -2 0v1a1 1 0 0 0 1 1z"/><path d="m8 12h2v2h-2z"/><path d="m12 12h2v2h-2z"/><path d="m16 12h2v2h-2z"/><path d="m61 2h-28a1 1 0 0 0 -1 1v5h-29a1 1 0 0 0 -1 1v52a1 1 0 0 0 1 1h58a1 1 0 0 0 1-1v-58a1 1 0 0 0 -1-1zm-57 8h28v6h-28zm13.38 50h-9.38v-1.54a4.959 4.959 0 0 1 3.57-4.78l1.57-.47 1.92 5.14a1.011 1.011 0 0 0 .73.63 1.492 1.492 0 0 0 .21.02 1.007 1.007 0 0 0 .71-.29l1.89-1.9.23.3zm-.99-3.81-1.39-3.73a6.16 6.16 0 0 0 .63-.41l3.57 1.34zm-2.39-25.63a8.712 8.712 0 0 0 2.69.44h11.31v8a7 7 0 0 1 -14 0zm-.52-2.38a6.673 6.673 0 0 1 -3.48-5.87v-.31h13a5 5 0 0 1 5 5v2h-11.31a6.607 6.607 0 0 1 -3.21-.82zm7.52 23.75-3.92-1.47a6.023 6.023 0 0 0 .9-2.99 8.869 8.869 0 0 0 6.04 0 5.933 5.933 0 0 0 .91 2.99zm.97 3.45-.47.62h-1l-.47-.62.97-.97zm-2.35 4.62 1-2h.76l1 2zm6.76-7.95a6.65 6.65 0 0 0 .62.41l-1.39 3.73-2.81-2.8zm7.62 7.95h-9.38l-1.45-2.89.23-.3 1.89 1.9a1.007 1.007 0 0 0 .71.29 1.492 1.492 0 0 0 .21-.02 1.011 1.011 0 0 0 .73-.63l1.92-5.14 1.57.47a4.959 4.959 0 0 1 3.57 4.78zm26 0h-24v-1.54a6.966 6.966 0 0 0 -4.99-6.7l-2.16-.65a3.978 3.978 0 0 1 -2.85-3.83v-.8a9.01 9.01 0 0 0 4-7.48v-2h1a3.009 3.009 0 0 0 3-3v-1a3.009 3.009 0 0 0 -3-3h-1v-3a7.008 7.008 0 0 0 -7-7h-14a1 1 0 0 0 -1 1v1.31a8.694 8.694 0 0 0 4 7.3v.39h-1a3.009 3.009 0 0 0 -3 3v1a3.009 3.009 0 0 0 3 3h1v2a9.01 9.01 0 0 0 4 7.48v.8a3.978 3.978 0 0 1 -2.85 3.83l-2.16.65a6.966 6.966 0 0 0 -4.99 6.7v1.54h-2v-42h28v9a1 1 0 0 0 1 1h3v5a1 1 0 0 0 1.6.8l7.73-5.8h14.67zm-30-25v-3h1a1 1 0 0 1 1 1v1a1 1 0 0 1 -1 1zm-18-3v3h-1a1 1 0 0 1 -1-1v-1a1 1 0 0 1 1-1zm48-6h-15a.984.984 0 0 0 -.6.2l-6.4 4.8v-4a1 1 0 0 0 -1-1h-3v-22h26z"/><path d="m36 8h22v2h-22z"/><path d="m36 14h9v2h-9z"/><path d="m49 14h9v2h-9z"/><path d="m36 20h22v2h-22z"/><path d="m50 38h8v2h-8z"/><path d="m50 42h2v2h-2z"/><path d="m54 42h4v2h-4z"/><path d="m50 46h8v2h-8z"/><path d="m47 50h11v2h-11z"/><path d="m40 54h18v2h-18z"/></svg>