<svg id="Layer_5" enable-background="new 0 0 64 64" height="512" viewBox="0 0 64 64" width="512" xmlns="http://www.w3.org/2000/svg"><path d="m33 31v-19h9c1.654 0 3 1.346 3 3v8.697l-2.168-3.252-1.664 1.109 4.832 7.249 4.832-7.248-1.664-1.109-2.168 3.251v-8.697c0-2.757-2.243-5-5-5h-9v-4c0-2.757-2.243-5-5-5h-22c-2.757 0-5 2.243-5 5v26c0 2.757 2.243 5 5 5h17v19h-9c-1.654 0-3-1.346-3-3v-8.697l2.168 3.252 1.664-1.109-4.832-7.249-4.832 7.248 1.664 1.109 2.168-3.251v8.697c0 2.757 2.243 5 5 5h9v5h40v-32zm28 8h-36v-6h36zm-34-24h-20v-8h20zm-20 2h20v8h-20zm-4 15v-26c0-1.654 1.346-3 3-3h22c1.654 0 3 1.346 3 3v25h-2v-24c0-1.103-.897-2-2-2h-20c-1.103 0-2 .897-2 2v27.816c-1.161-.414-2-1.514-2-2.816zm4 3v-8h20v4h-4v4zm18 26v-20h36v20z"/><path d="m9 9h2v4h-2z"/><path d="m13 9h2v4h-2z"/><path d="m23 19h2v4h-2z"/><path d="m19 19h2v4h-2z"/><path d="m9 29h2v4h-2z"/><path d="m13 29h2v4h-2z"/><path d="m27 35h2v2h-2z"/><path d="m31 35h2v2h-2z"/><path d="m35 35h2v2h-2z"/><path d="m46.567 51.494c.884-.902 1.433-2.134 1.433-3.494 0-2.757-2.243-5-5-5s-5 2.243-5 5c0 1.36.549 2.592 1.433 3.494-2.592 1.027-4.433 3.553-4.433 6.506v1h16v-1c0-2.953-1.841-5.479-4.433-6.506zm-3.567-6.494c1.654 0 3 1.346 3 3s-1.346 3-3 3-3-1.346-3-3 1.346-3 3-3zm-5.899 12c.465-2.279 2.484-4 4.899-4h2c2.415 0 4.435 1.721 4.899 4z"/><path d="m27 43h2v2h-2z"/><path d="m27 47h2v2h-2z"/><path d="m27 51h2v2h-2z"/><path d="m57 57h2v2h-2z"/><path d="m57 53h2v2h-2z"/><path d="m57 49h2v2h-2z"/></svg>