<svg id="Layer_1" enable-background="new 0 0 512 512" viewBox="0 0 512 512" xmlns="http://www.w3.org/2000/svg"><path d="m228.92 236.7c7.47 7.47 17.27 11.2 27.08 11.2s19.61-3.73 27.08-11.2c7.23-7.23 11.22-16.85 11.22-27.08s-3.98-19.85-11.22-27.08c-14.93-14.93-39.23-14.93-54.16 0-14.93 14.94-14.93 39.23 0 54.16zm8.48-45.67c10.25-10.25 26.94-10.25 37.19 0 4.97 4.97 7.7 11.57 7.7 18.59s-2.74 13.63-7.7 18.59c-10.25 10.25-26.94 10.25-37.19 0-10.25-10.24-10.25-26.93 0-37.18zm18.6 83.77c16.7 0 33.4-6.36 46.11-19.07 25.43-25.43 25.43-66.8 0-92.22-25.42-25.43-66.8-25.43-92.22 0-25.43 25.43-25.43 66.8 0 92.22 12.71 12.72 29.41 19.07 46.11 19.07zm-37.63-102.8c10.37-10.37 24-15.56 37.63-15.56s27.25 5.19 37.63 15.56c20.75 20.75 20.75 54.5 0 75.25s-54.5 20.75-75.25 0-20.75-54.51-.01-75.25zm190.77-67.55c-8.91 0-16.47 5.87-19.03 13.95h-17.68c-3.31 0-6 2.69-6 6v61.08h-12.88l-14.78-.46c-1.7-5.75-4-11.29-6.85-16.55l10.19-10.84c2.84-3.02 2.77-7.67-.16-10.61l-22.67-22.67v-49.08h10.98c2.55 8.08 10.11 13.95 19.03 13.95 11 0 19.95-8.95 19.95-19.95s-8.95-19.95-19.95-19.95c-8.91 0-16.47 5.87-19.03 13.95h-16.98c-3.31 0-6 2.69-6 6v54.89l-10.14 9.53c-5.27-2.86-10.82-5.15-16.57-6.86l-.45-14.86c-.12-4.14-3.47-7.39-7.61-7.39h-10.51v-50.6c8.08-2.55 13.95-10.11 13.95-19.03 0-11-8.95-19.95-19.95-19.95s-19.95 8.95-19.95 19.95c0 8.91 5.87 16.47 13.95 19.03v50.61h-10.52c-4.14 0-7.49 3.25-7.61 7.39l-.45 14.86c-5.76 1.7-11.31 4-16.59 6.87l-10.12-9.53v-54.9c0-3.31-2.69-6-6-6h-16.98c-2.55-8.08-10.11-13.95-19.03-13.95-11 0-19.95 8.95-19.95 19.95s8.95 19.95 19.95 19.95c8.91 0 16.47-5.87 19.03-13.95h10.98v49.09l-22.66 22.66c-2.93 2.93-3 7.59-.16 10.61l10.19 10.82c-2.86 5.27-5.16 10.83-6.87 16.59l-14.71.44h-12.94v-61.09c0-3.31-2.69-6-6-6h-17.68c-2.55-8.08-10.11-13.95-19.03-13.95-11 0-19.95 8.95-19.95 19.95s8.95 19.95 19.95 19.95c8.91 0 16.47-5.87 19.03-13.95h11.68v61.08c0 3.31 2.69 6 6 6h11.4v6.14h-32.57c-8.39 0-15.22 6.83-15.22 15.22v210.09c0 8.39 6.83 15.22 15.22 15.22h101.23v16.77l-13.37 6.95c-.42.22-.85.43-1.27.65-4.33 2.19-10.86 5.49-10.86 13.58 0 8.21 6.68 14.9 14.9 14.9h93.96c8.21 0 14.9-6.68 14.9-14.9 0-8.09-6.54-11.39-10.87-13.58-.42-.21-.84-.43-1.26-.64l-13.37-6.95v-16.77h101.23c8.39 0 15.22-6.83 15.22-15.22v-210.09c0-8.39-6.83-15.22-15.22-15.22h-32.57v-6.14h11.4c3.31 0 6-2.69 6-6v-61.09h11.68c2.55 8.08 10.11 13.95 19.03 13.95 11 0 19.95-8.95 19.95-19.95s-8.95-19.95-19.96-19.95zm-59.85-43.13c4.38 0 7.95 3.57 7.95 7.95s-3.57 7.95-7.95 7.95-7.95-3.57-7.95-7.95 3.56-7.95 7.95-7.95zm-93.29-34.32c4.38 0 7.95 3.57 7.95 7.95s-3.57 7.95-7.95 7.95-7.95-3.57-7.95-7.95 3.57-7.95 7.95-7.95zm-93.29 50.22c-4.38 0-7.95-3.57-7.95-7.95s3.57-7.95 7.95-7.95 7.95 3.57 7.95 7.95-3.57 7.95-7.95 7.95zm-59.85 55.14c-4.38 0-7.95-3.57-7.95-7.95s3.57-7.95 7.95-7.95 7.95 3.57 7.95 7.95-3.57 7.95-7.95 7.95zm60.1 65 13.84-.42c3.43-.1 6.31-2.41 7.15-5.73 1.75-6.87 4.47-13.43 8.07-19.5 1.76-2.95 1.36-6.62-1-9.12l-9.49-10.08 17.34-17.34 10.08 9.49c2.5 2.35 6.16 2.76 9.11 1.01 6.08-3.61 12.65-6.33 19.51-8.08 3.32-.85 5.63-3.72 5.73-7.15l.42-13.84h24.53l.42 13.84c.1 3.43 2.41 6.31 5.73 7.16 6.86 1.75 13.42 4.46 19.49 8.07 2.95 1.75 6.61 1.34 9.1-1l10.1-9.49 17.35 17.35-9.49 10.1c-2.35 2.5-2.75 6.16-1 9.1 3.6 6.07 6.31 12.62 8.06 19.47.85 3.33 3.72 5.63 7.15 5.74l13.86.43v24.54l-13.86.43c-3.43.11-6.3 2.41-7.15 5.73-1.75 6.85-4.46 13.4-8.06 19.47-1.75 2.95-1.35 6.61 1 9.11l9.49 10.1-17.35 17.35-10.1-9.49c-2.5-2.35-6.15-2.75-9.11-1-6.07 3.6-12.62 6.32-19.47 8.06-3.33.85-5.63 3.72-5.74 7.15l-.43 13.86h-24.54l-.43-13.86c-.11-3.42-2.41-6.29-5.73-7.14-6.86-1.75-13.42-4.46-19.49-8.07-2.95-1.75-6.62-1.35-9.11 1l-10.08 9.49-17.34-17.34 9.49-10.08c2.36-2.5 2.76-6.16 1.01-9.11-3.61-6.08-6.33-12.65-8.08-19.51-.85-3.33-3.72-5.63-7.15-5.74l-13.84-.42v-24.54zm120.65 272.54 16.6 8.63c.46.24.93.47 1.39.71 1.38.7 3.95 1.99 4.26 2.65 0 0 .02.06.02.21 0 1.57-1.33 2.9-2.9 2.9h-93.96c-1.57 0-2.9-1.33-2.9-2.9 0-.15.02-.21.02-.21.31-.66 2.88-1.96 4.26-2.65.46-.23.93-.47 1.39-.71l16.6-8.63c1.99-1.03 3.23-3.09 3.23-5.32v-20.42h48.75v20.42c.01 2.24 1.25 4.29 3.24 5.32zm110-37.74h-275.22c-1.75 0-3.22-1.48-3.22-3.22v-22.96h281.67v22.96c-.01 1.75-1.48 3.22-3.23 3.22zm0-216.54c1.75 0 3.22 1.48 3.22 3.22v175.13h-281.66v-175.12c0-1.75 1.48-3.22 3.22-3.22h32.57v10.52c0 4.15 3.25 7.49 7.39 7.61l14.86.45c1.7 5.76 4 11.31 6.87 16.59l-10.19 10.82c-2.84 3.02-2.77 7.68.16 10.61l23.36 23.36c2.93 2.93 7.59 2.99 10.6.16l10.82-10.19c5.27 2.86 10.82 5.16 16.57 6.86l.46 14.87c.12 4.14 3.47 7.39 7.61 7.39h33.04c4.14 0 7.48-3.24 7.61-7.38l.46-14.87c5.75-1.7 11.29-4 16.55-6.85l10.84 10.19c3.02 2.83 7.67 2.76 10.6-.17l23.36-23.36c2.93-2.93 3-7.59.16-10.6l-10.19-10.84c2.85-5.26 5.15-10.81 6.85-16.55l14.87-.46c4.14-.13 7.38-3.47 7.38-7.61v-10.52h32.61zm15.53-83.26c-4.38 0-7.95-3.57-7.95-7.95s3.57-7.95 7.95-7.95 7.95 3.57 7.95 7.95-3.56 7.95-7.95 7.95zm-136.9 207.9c0-11.06-9-20.06-20.06-20.06h-17c-3.31 0-6 2.69-6 6v56.25c0 3.31 2.69 6 6 6s6-2.69 6-6v-22.12h7.29l12.4 24.81c1.05 2.1 3.17 3.32 5.37 3.32.9 0 1.82-.2 2.68-.64 2.96-1.48 4.17-5.09 2.68-8.05l-10.73-21.45c6.72-3.26 11.37-10.12 11.37-18.06zm-31.06-8.06h11c4.45 0 8.06 3.62 8.06 8.06 0 4.45-3.62 8.06-8.06 8.06h-11zm-66.23 20.5v3.25c0 11.3 9.2 20.5 20.5 20.5h.45c4.21 0 8.25-1.28 11.7-3.69 2.71-1.9 6.46-1.24 8.36 1.48s1.24 6.46-1.48 8.36c-5.48 3.83-11.9 5.86-18.58 5.86h-.45c-17.92 0-32.5-14.58-32.5-32.5v-3.25c0-17.92 14.58-32.5 32.5-32.5h.45c6.68 0 13.1 2.02 18.58 5.85 2.72 1.9 3.38 5.64 1.48 8.36s-5.64 3.38-8.36 1.48c-3.45-2.41-7.5-3.69-11.7-3.69h-.45c-11.3-.01-20.5 9.18-20.5 20.49zm174.1-26.5v56.25c0 3.31-2.69 6-6 6s-6-2.69-6-6v-36.99l-15.27 22.13c-1.12 1.62-2.97 2.59-4.94 2.59s-3.82-.97-4.94-2.59l-15.27-22.13v36.99c0 3.31-2.69 6-6 6s-6-2.69-6-6v-56.25c0-2.63 1.71-4.95 4.21-5.73 2.51-.78 5.23.16 6.72 2.32l21.27 30.82 21.27-30.82c1.49-2.16 4.21-3.1 6.72-2.32 2.52.78 4.23 3.1 4.23 5.73z" fill="rgb(0,0,0)"/></svg>