<svg version="1.1" id="Capa_1" xmlns="http://www.w3.org/2000/svg" xmlns:xlink="http://www.w3.org/1999/xlink" x="0px" y="0px" viewBox="0 0 512 512" style="enable-background:new 0 0 512 512;" xml:space="preserve">
<g>
	<g>
		<g>
			
				<line style="fill:none;stroke:#000000;stroke-width:15;stroke-linecap:round;stroke-linejoin:round;stroke-miterlimit:10;" x1="57.079" y1="250.602" x2="93.137" y2="250.602"/>
			
				<line style="fill:none;stroke:#000000;stroke-width:15;stroke-linecap:round;stroke-linejoin:round;stroke-miterlimit:10;" x1="57.079" y1="290.266" x2="143.619" y2="290.266"/>
			
				<line style="fill:none;stroke:#000000;stroke-width:15;stroke-linecap:round;stroke-linejoin:round;stroke-miterlimit:10;" x1="57.079" y1="329.93" x2="71" y2="329.93"/>
			
				<line style="fill:none;stroke:#000000;stroke-width:15;stroke-linecap:round;stroke-linejoin:round;stroke-miterlimit:10;" x1="96" y1="329.93" x2="143.619" y2="329.93"/>
			
				<line style="fill:none;stroke:#000000;stroke-width:15;stroke-linecap:round;stroke-linejoin:round;stroke-miterlimit:10;" x1="57.079" y1="369.594" x2="143.619" y2="369.594"/>
			
				<line style="fill:none;stroke:#000000;stroke-width:15;stroke-linecap:round;stroke-linejoin:round;stroke-miterlimit:10;" x1="57.079" y1="409.258" x2="143.619" y2="409.258"/>
			
				<line style="fill:none;stroke:#000000;stroke-width:15;stroke-linecap:round;stroke-linejoin:round;stroke-miterlimit:10;" x1="57.079" y1="448.922" x2="143.619" y2="448.922"/>
		</g>
		<g>
			
				<line style="fill:none;stroke:#000000;stroke-width:15;stroke-linecap:round;stroke-linejoin:round;stroke-miterlimit:10;" x1="454.921" y1="250.602" x2="418.863" y2="250.602"/>
			
				<line style="fill:none;stroke:#000000;stroke-width:15;stroke-linecap:round;stroke-linejoin:round;stroke-miterlimit:10;" x1="454.921" y1="290.266" x2="368.381" y2="290.266"/>
			
				<line style="fill:none;stroke:#000000;stroke-width:15;stroke-linecap:round;stroke-linejoin:round;stroke-miterlimit:10;" x1="454.921" y1="329.93" x2="368.381" y2="329.93"/>
			
				<line style="fill:none;stroke:#000000;stroke-width:15;stroke-linecap:round;stroke-linejoin:round;stroke-miterlimit:10;" x1="454.921" y1="369.594" x2="368.381" y2="369.594"/>
			
				<line style="fill:none;stroke:#000000;stroke-width:15;stroke-linecap:round;stroke-linejoin:round;stroke-miterlimit:10;" x1="417" y1="409.258" x2="368.381" y2="409.258"/>
			
				<line style="fill:none;stroke:#000000;stroke-width:15;stroke-linecap:round;stroke-linejoin:round;stroke-miterlimit:10;" x1="454.921" y1="409.258" x2="442" y2="409.258"/>
			
				<line style="fill:none;stroke:#000000;stroke-width:15;stroke-linecap:round;stroke-linejoin:round;stroke-miterlimit:10;" x1="454.921" y1="448.922" x2="368.381" y2="448.922"/>
		</g>
		<path style="fill:none;stroke:#000000;stroke-width:15;stroke-linecap:round;stroke-linejoin:round;stroke-miterlimit:10;" d="&#10;&#9;&#9;&#9;M373.79,143.815v-28.846c0-5.31-4.305-9.616-9.616-9.616h-15.552c-4.045,0-7.648-2.535-9.029-6.337&#10;&#9;&#9;&#9;c-0.896-2.468-1.898-4.885-3.001-7.246c-1.714-3.668-0.964-8.011,1.899-10.874l10.997-10.997c3.755-3.755,3.755-9.843,0-13.598&#10;&#9;&#9;&#9;l-20.398-20.398c-3.755-3.755-9.843-3.755-13.598,0L304.496,46.9c-2.863,2.863-7.206,3.613-10.874,1.899&#10;&#9;&#9;&#9;c-2.361-1.103-4.778-2.105-7.246-3.001c-3.802-1.381-6.337-4.984-6.337-9.029V21.217c0-5.31-4.305-9.616-9.616-9.616h-28.846&#10;&#9;&#9;&#9;c-5.311,0-9.616,4.305-9.616,9.616v15.552c0,4.045-2.535,7.648-6.337,9.029c-2.468,0.896-4.885,1.898-7.246,3.001&#10;&#9;&#9;&#9;c-3.668,1.714-8.011,0.964-10.874-1.899l-10.997-10.997c-3.755-3.755-9.843-3.755-13.598,0L162.511,56.3&#10;&#9;&#9;&#9;c-3.755,3.755-3.755,9.843,0,13.598l10.997,10.997c2.863,2.863,3.613,7.206,1.899,10.874c-1.103,2.361-2.105,4.778-3.001,7.246&#10;&#9;&#9;&#9;c-1.381,3.802-4.984,6.337-9.029,6.337h-15.552c-5.31,0-9.615,4.305-9.615,9.616v28.846c0,5.311,4.305,9.616,9.615,9.616h15.552&#10;&#9;&#9;&#9;c4.045,0,7.648,2.535,9.029,6.337c0.896,2.468,1.898,4.885,3.001,7.246c1.714,3.668,0.964,8.011-1.899,10.874l-10.997,10.997&#10;&#9;&#9;&#9;c-3.755,3.755-3.755,9.843,0,13.598l20.398,20.398c3.755,3.755,9.843,3.755,13.598,0l10.997-10.997&#10;&#9;&#9;&#9;c2.863-2.863,7.206-3.613,10.874-1.899c2.361,1.103,4.778,2.105,7.246,3.001c3.802,1.381,6.337,4.984,6.337,9.029v15.552&#10;&#9;&#9;&#9;c0,5.31,4.305,9.615,9.616,9.615h28.846c5.31,0,9.616-4.305,9.616-9.615v-15.552c0-4.045,2.535-7.648,6.337-9.029&#10;&#9;&#9;&#9;c2.468-0.896,4.885-1.898,7.246-3.001c3.668-1.714,8.011-0.964,10.874,1.899l10.997,10.997c3.755,3.755,9.843,3.755,13.598,0&#10;&#9;&#9;&#9;l20.398-20.398c3.755-3.755,3.755-9.843,0-13.598l-10.997-10.997c-2.863-2.863-3.613-7.206-1.899-10.874&#10;&#9;&#9;&#9;c1.103-2.361,2.105-4.778,3.001-7.246c1.381-3.802,4.984-6.337,9.029-6.337h15.552C369.485,153.43,373.79,149.125,373.79,143.815z&#10;&#9;&#9;&#9;"/>
		<path style="fill:none;stroke:#000000;stroke-width:15;stroke-linecap:round;stroke-linejoin:round;stroke-miterlimit:10;" d="&#10;&#9;&#9;&#9;M236.14,361.513c-19.23,4.196-33.633,21.307-33.633,41.795v35.36c0,5.663,4.591,10.254,10.254,10.254h86.478&#10;&#9;&#9;&#9;c5.663,0,10.254-4.591,10.254-10.254v-35.36c0-20.488-14.403-37.599-33.633-41.795"/>
		
			<circle style="fill:none;stroke:#000000;stroke-width:15;stroke-linecap:round;stroke-linejoin:round;stroke-miterlimit:10;" cx="256" cy="325.257" r="41.335"/>
		<g>
			
				<line style="fill:none;stroke:#000000;stroke-width:15;stroke-linecap:round;stroke-linejoin:round;stroke-miterlimit:10;" x1="468.018" y1="153.639" x2="469.018" y2="153.639"/>
			
				<line style="fill:none;stroke:#000000;stroke-width:15;stroke-linecap:round;stroke-linejoin:round;stroke-miterlimit:10;" x1="441.009" y1="153.639" x2="442.009" y2="153.639"/>
			
				<line style="fill:none;stroke:#000000;stroke-width:15;stroke-linecap:round;stroke-linejoin:round;stroke-miterlimit:10;" x1="414" y1="153.639" x2="415" y2="153.639"/>
		</g>
		<path style="fill:none;stroke:#000000;stroke-width:15;stroke-linecap:round;stroke-linejoin:round;stroke-miterlimit:10;" d="&#10;&#9;&#9;&#9;M218.874,145c6.097,14.486,20.423,24.657,37.126,24.657c22.238,0,40.265-18.027,40.265-40.265S278.238,89.127,256,89.127&#10;&#9;&#9;&#9;c-15.206,0-28.44,8.432-35.291,20.873"/>
		<g>
			<path style="fill:none;stroke:#000000;stroke-width:15;stroke-linecap:round;stroke-linejoin:round;stroke-miterlimit:10;" d="&#10;&#9;&#9;&#9;&#9;M138.21,125.394H22.5c-8.284,0-15,6.716-15,15v41.491h162.011"/>
			<path style="fill:none;stroke:#000000;stroke-width:15;stroke-linecap:round;stroke-linejoin:round;stroke-miterlimit:10;" d="&#10;&#9;&#9;&#9;&#9;M342.489,181.885H504.5v-41.491c0-8.284-6.716-15-15-15H452"/>
			
				<line style="fill:none;stroke:#000000;stroke-width:15;stroke-linecap:round;stroke-linejoin:round;stroke-miterlimit:10;" x1="417" y1="125.394" x2="373.79" y2="125.394"/>
		</g>
		
			<line style="fill:none;stroke:#000000;stroke-width:15;stroke-linecap:round;stroke-linejoin:round;stroke-miterlimit:10;" x1="7.5" y1="181.885" x2="7.5" y2="370.76"/>
		<path style="fill:none;stroke:#000000;stroke-width:15;stroke-linecap:round;stroke-linejoin:round;stroke-miterlimit:10;" d="&#10;&#9;&#9;&#9;M7.5,405.76v79.638c0,8.284,6.716,15,15,15h467c8.284,0,15-6.716,15-15V181.885"/>
	</g>
</g>
<g>
</g>
<g>
</g>
<g>
</g>
<g>
</g>
<g>
</g>
<g>
</g>
<g>
</g>
<g>
</g>
<g>
</g>
<g>
</g>
<g>
</g>
<g>
</g>
<g>
</g>
<g>
</g>
<g>
</g>
</svg>