<svg id="Outline" enable-background="new 0 0 64 64" viewBox="0 0 64 64" xmlns="http://www.w3.org/2000/svg"><g><path d="m56 7h-48c-.54999 0-1 .45001-1 1v48c0 .54999.45001 1 1 1h34c.54999 0 1-.45001 1-1s-.45001-1-1-1h-9v-4c0-3.58002-2.70001-6.53003-6.16998-6.95001.60998-.58002 1.11999-1.28003 1.47998-2.04999h1.19c1.92999 0 3.5-1.57001 3.5-3.5 0-.95001-.38-1.81-1-2.44v-1.06c0-5.51001-4.48999-10-10-10s-10 4.48999-10 10v1.06c-.62.63-1 1.48999-1 2.44 0 1.92999 1.57001 3.5 3.5 3.5h1.19c.35999.76996.87 1.46997 1.47998 2.04999-3.46997.41998-6.16998 3.36999-6.16998 6.95001v4h-2v-38h24.76001l.12.13c-.13.27997-.25.57001-.35999.87h-.52002c-.54999 0-1 .45001-1 1v4c0 .54999.45001 1 1 1h.52002c.10998.29999.22998.58997.35998.87 0 0-.36978.36978-.37001.37001-.41712.41715-.33844.9969.00002 1.41997 0 0 2.82276 2.82276 2.83 2.83.39381.39381 1.02578.37347 1.42.00001l.37-.37c.27997.13.57001.25.87.35999v.52002c0 .54999.45001 1 1 1h4c.54999 0 1-.45001 1-1v-.52002c.29998-.10998.59002-.22998.86999-.35998l.37.37c.38.37 1.04004.37 1.41998 0 0 0 2.8269-2.8269 2.83001-2.83002.36905-.36904.38478-1.0138 0-1.41998l-.37-.37c.13-.28003.25-.57001.35999-.87h.52002c.54999 0 1-.45001 1-1v-4c0-.54999-.45001-1-1-1h-.52002c-.10998-.29999-.22998-.59003-.35998-.87l.12-.13h4.76v38h-5c-.54999 0-1 .45001-1 1s.45001 1 1 1h6c.54999 0 1-.45001 1-1v-48c0-.54999-.45001-1-1-1zm-25 31.5c0 .82996-.66998 1.5-1.5 1.5h-.58002c.04999-.33002.08002-.66003.08002-1v-2h.5c.83002 0 1.5.66998 1.5 1.5zm-16.5 1.5c-.83002 0-1.5-.67004-1.5-1.5 0-.83002.66998-1.5 1.5-1.5h.5v2c0 .33997.03003.66998.08002 1zm.78998-5h-.78998c-.16998 0-.34003.02997-.5.04999v-.04999c0-4.41003 3.59003-8 8-8s8 3.58997 8 8v.04999c-.15997-.02002-.33002-.04999-.5-.04999h-.78998c-.87-2.89001-3.55005-5-6.71002-5s-5.84003 2.10999-6.71002 5zm11.61004 1h-.07001c-1.56 0-3.02002-.60999-4.12-1.71002-.38-.37-1.04004-.37-1.42004 0-1.09997 1.10003-2.55999 1.71002-4.11999 1.71002h-.07001c.47003-2.28003 2.49005-4 4.90002-4s4.43 1.71997 4.90003 4zm-9.90002 3v-1h.16998c1.78003 0 3.46002-.59003 4.83002-1.66003 1.37 1.07 3.04999 1.66003 4.83002 1.66003h.16998v1c0 2.76001-2.23999 5-5 5s-5-2.23999-5-5zm6.59003 7-1.59003 1.58997-1.59003-1.58997zm-10.59003 5c0-2.63 2.04999-4.77002 4.62-4.96002l3.66998 3.66998c.37.37 1.02002.39001 1.42004 0l3.66998-3.66998c2.57001.19 4.62 2.33002 4.62 4.96002v4h-18zm37-29h-.26001c-.45996 0-.85999.31-.96997.75-.16003.63-.41003 1.23999-.75 1.79999-.23004.39001-.16003.89001.15997 1.21997l.17999.18005-1.40997 1.40997-.19-.17999c-.32001-.32-.82001-.39001-1.21002-.16003-.56.33002-1.15997.59003-1.79999.75-.44.11004-.75.51001-.75.97003v.26001h-2v-.26001c0-.46002-.31-.85999-.75-.97003-.64001-.15997-1.23999-.41998-1.79999-.75-.39001-.22998-.89001-.15997-1.21002.16003l-.19.17999-1.40997-1.40997.17999-.18005c.32001-.32996.39001-.82996.15997-1.21997-.33997-.56-.58997-1.16998-.75-1.79999-.10998-.44-.51001-.75-.96997-.75h-.26001v-2h.26001c.45996 0 .85999-.31.96997-.75.16003-.63.41003-1.23999.75-1.79999.23004-.39001.16003-.89001-.15997-1.22003l-.17999-.17999 1.40997-1.40997.19.17999c.32001.32996.82001.38995 1.21002.14996.56-.32996 1.16998-.57996 1.79999-.73999.44-.10998.75-.51001.75-.96997v-.26001h2v.26001c0 .45996.31.85999.75.96997.63.16003 1.23999.41003 1.79999.73999.39001.23999.89001.17004 1.21002-.14996l.19-.17999 1.40997 1.40997-.17999.17999c-.32.33002-.39001.83002-.15997 1.22003.33997.56.58997 1.16998.75 1.79999.10998.44.51001.75.96997.75h.26001zm5-7h-4.85999l-2.48004-2.48999c-.38995-.39001-1.02997-.39001-1.41998 0l-.37.37c-.27997-.13-.57001-.25-.87-.36005v-.51996c0-.54999-.45001-1-1-1h-4c-.54999 0-1 .45001-1 1v.51996c-.29998.11004-.59002.23004-.86999.36004l-.37-.37c-.39001-.39001-1.03003-.39001-1.41998 0l-2.48003 2.49h-24.85999v-6h46z"/><circle cx="12" cy="12" r="1"/><circle cx="16" cy="12" r="1"/><circle cx="20" cy="12" r="1"/><path d="m42 16c-2.75684 0-5 2.24316-5 5s2.24316 5 5 5 5-2.24316 5-5-2.24316-5-5-5zm0 8c-1.6543 0-3-1.3457-3-3s1.3457-3 3-3 3 1.3457 3 3-1.3457 3-3 3z"/><path d="m38.56496 49.87033c.31741.1625.71313.1715 1.03465-.07053l3.7334-2.7998h8.66699c.55273 0 1-.44775 1-1v-10c0-.55225-.44727-1-1-1h-16c-.55273 0-1 .44775-1 1v10c0 .55225.44727 1 1 1h2v1.99998c0 .38058.24192.70496.56496.87035zm-1.56496-4.87033v-8h14v8h-8c-.2168 0-.42676.07031-.59961.2002l-2.40039 1.7998v-1c0-.55225-.44727-1-1-1z"/><path d="m40 42h8c.55273 0 1-.44775 1-1s-.44727-1-1-1h-8c-.55273 0-1 .44775-1 1s.44727 1 1 1z"/><circle cx="46" cy="56" r="1"/></g></svg>